<svg xmlns="http://www.w3.org/2000/svg" xmlns:xlink="http://www.w3.org/1999/xlink" viewBox="0 0 244.8 208.25"><defs><style>.cls-1{fill:none;}.cls-2{fill:#e3edfc;}.cls-23,.cls-3{fill:#814c4a;}.cls-23,.cls-24,.cls-4{opacity:0.2;}.cls-5{fill:#b76a6a;}.cls-6{fill:#ffae8a;}.cls-7{fill:#f79b77;}.cls-8{fill:#ffbca1;}.cls-20,.cls-22,.cls-32,.cls-8{opacity:0.5;}.cls-9{fill:#fac849;}.cls-10{fill:#f9b212;}.cls-11{fill:#aa6868;}.cls-12{fill:#111b24;}.cls-13{fill:#f4472a;}.cls-14,.cls-24,.cls-34{fill:#fff;}.cls-15{fill:#f89675;}.cls-16,.cls-30{opacity:0.1;}.cls-17{fill:#f4b425;}.cls-18{fill:#f4885d;}.cls-19{fill:#5d93f4;}.cls-20,.cls-21{fill:#1a65d3;}.cls-22{fill:#0952aa;}.cls-25{fill:#2d80e2;}.cls-26{fill:#184a7c;}.cls-27{fill:#1d5393;}.cls-28,.cls-30{fill:#114068;}.cls-28{opacity:0.6;}.cls-29{fill:#a9d0ff;}.cls-31{clip-path:url(#clip-path);}.cls-33{fill:#fc8b3f;}.cls-34{font-size:7.25px;}.cls-34,.cls-36{font-family:Montserrat-ExtraBold, Montserrat ExtraBold;font-weight:700;}.cls-35{fill:#f46c0f;}.cls-36{font-size:7.17px;}.cls-36,.cls-37{fill:#b6cdef;}.cls-38{fill:#af622e;}</style><clipPath id="clip-path" transform="translate(-123.34 -147.12)"><rect class="cls-1" x="151.97" y="266.01" width="25.43" height="15.83"/></clipPath></defs><title>5092142</title><g id="OBJECTS"><path class="cls-2" d="M350.19,345.83H137.05l-.18-.21c-.1-.11-9.68-11.79,0-25.68s11.5-19.36,6.4-31.75c-.88-2.16-2-4.49-3.2-7-6-12.43-13.47-27.9.23-39.82l3.19-2.77c14-12.11,23.22-20.11,26.76-34.39,1.44-5.85,4.6-14.21,11.43-20.87,6.43-6.27,14.5-9.45,24-9.45,7.38,0,15.55,2,24.29,5.88,25.81,11.52,34.93,14.87,45.62,14.87,3.56,0,7.35-.35,12.31-.85a60.52,60.52,0,0,1,6.05-.3c13,0,24.27,4,30.93,10.94,5.27,5.51,7.76,12.75,7.38,21.53-.22,5.28-.58,9.76-.9,13.71-1.29,16-1.77,22,10.21,32.38,17.36,15,28.8,42.17,8.85,73.47Zm-212.6-1.15h212c19.32-30.57,8.14-57.08-8.81-71.71-12.42-10.73-11.89-17.35-10.6-33.36.31-3.94.67-8.4.9-13.66.36-8.45-2-15.41-7.07-20.68-6.44-6.73-17.41-10.58-30.09-10.58A58.48,58.48,0,0,0,288,195c-5,.5-8.81.85-12.42.85-10.9,0-20.1-3.37-46.09-15-8.59-3.83-16.6-5.78-23.82-5.78-6.33,0-27.52,2.13-34.28,29.45-3.63,14.63-13,22.73-27.13,35L141,242.28c-13,11.34-5.78,26.37.05,38.44,1.2,2.49,2.33,4.84,3.23,7,5.56,13.53,2.8,19.43-6.52,32.85C129.33,332.78,136.41,343.1,137.59,344.68Z" transform="translate(-123.34 -147.12)"/><path class="cls-2" d="M141.48,345.25s-9.14-10.86,0-24,11.34-18.61,6.22-31.07-18.46-30.92-3-44.37,25.29-21.1,29-36c4.83-19.48,22.24-38.5,56.66-23.14s37.71,15.36,56,13.54,43.16,4.76,42.07,30.36-5.49,32.15,9.14,44.78,28.53,38.39,8.41,69.95Z" transform="translate(-123.34 -147.12)"/><path class="cls-3" d="M221.44,232.88s-8.8,54.36,24.84,54.36,25.77-56.48,25.77-56.48l-49.57,2.12" transform="translate(-123.34 -147.12)"/><g class="cls-4"><path class="cls-5" d="M224.68,240.54s0,.59,0,1.62,0,2.51.08,4.27.18,3.82.38,6c.09,1.1.23,2.22.37,3.37s.32,2.3.54,3.44.45,2.3.72,3.41c.13.56.3,1.11.43,1.65s.32,1.07.48,1.6.35,1,.53,1.52.36,1,.56,1.43l.59,1.33.6,1.23c.43.76.81,1.47,1.21,2.06s.77,1.09,1.06,1.51l1,1.26-.32-.28c-.2-.2-.52-.45-.88-.83s-.8-.83-1.24-1.41c-.22-.29-.48-.58-.71-.91l-.72-1.07-.72-1.2c-.23-.43-.45-.88-.69-1.33s-.43-1-.66-1.44-.4-1-.6-1.54c-.37-1.06-.74-2.16-1-3.3s-.56-2.3-.77-3.48-.37-2.35-.52-3.52-.21-2.31-.28-3.42-.08-2.2-.08-3.22,0-2,.06-2.87c.07-1.78.24-3.25.35-4.28S224.68,240.54,224.68,240.54Z" transform="translate(-123.34 -147.12)"/><path class="cls-5" d="M228.83,240.54s0,.55.1,1.51c0,.48.08,1.06.12,1.73s.12,1.42.18,2.24.16,1.7.25,2.64.2,1.92.33,2.94.27,2.07.41,3.13.33,2.14.5,3.22.4,2.15.6,3.2.45,2.08.7,3.07.51,1.95.78,2.84.56,1.74.81,2.52.57,1.46.81,2.08l.17.45c.07.14.13.28.2.41l.33.72.63,1.38s-.3-.47-.83-1.27l-.43-.68-.25-.38-.22-.44c-.31-.6-.65-1.28-1-2s-.66-1.6-1-2.48-.62-1.86-.94-2.85-.55-2-.81-3.1-.45-2.15-.65-3.24-.36-2.19-.47-3.27-.24-2.15-.31-3.18-.14-2-.17-3,0-1.85-.06-2.67A51.68,51.68,0,0,1,228.83,240.54Z" transform="translate(-123.34 -147.12)"/><path class="cls-5" d="M235.17,242l.3,5.11c.08,1.53.19,3.32.3,5.23.06.95.13,1.94.19,2.94s.15,2,.24,3,.18,2,.29,3,.21,2,.34,2.92.26,1.85.4,2.71.31,1.67.47,2.42.34,1.41.51,2,.34,1.11.51,1.52a10.25,10.25,0,0,0,.39.95l.16.34-.21-.31a7.84,7.84,0,0,1-.55-.89,15.67,15.67,0,0,1-.72-1.47c-.11-.29-.24-.6-.37-.93s-.24-.68-.36-1.05-.23-.76-.35-1.16-.21-.82-.32-1.25c-.21-.87-.41-1.78-.57-2.73s-.33-1.94-.44-2.95-.24-2-.33-3.05-.14-2.06-.2-3.07-.07-2-.1-3c0-1.93,0-3.72.06-5.26C234.92,244.07,235.17,242,235.17,242Z" transform="translate(-123.34 -147.12)"/><path class="cls-5" d="M267.87,240.54s0,.59,0,1.62,0,2.51-.08,4.27-.18,3.82-.38,6c-.09,1.1-.24,2.22-.37,3.37s-.33,2.3-.55,3.44-.44,2.3-.72,3.41c-.13.56-.29,1.11-.43,1.65s-.32,1.07-.48,1.6-.35,1-.52,1.52-.37,1-.56,1.43l-.59,1.33-.6,1.23c-.43.76-.82,1.47-1.22,2.06a17.14,17.14,0,0,1-1.06,1.51l-1,1.26.31-.28c.2-.2.52-.45.88-.83s.81-.83,1.24-1.41c.22-.29.48-.58.71-.91s.48-.7.73-1.07l.72-1.2c.23-.43.45-.88.68-1.33s.44-1,.66-1.44.4-1,.61-1.54c.36-1.06.74-2.16,1-3.3s.57-2.3.78-3.48.37-2.35.51-3.52.22-2.31.28-3.42.08-2.2.09-3.22,0-2-.06-2.87c-.08-1.78-.25-3.25-.36-4.28S267.87,240.54,267.87,240.54Z" transform="translate(-123.34 -147.12)"/><path class="cls-5" d="M263.72,240.54s0,.55-.1,1.51c0,.48-.07,1.06-.12,1.73s-.11,1.42-.18,2.24-.16,1.7-.25,2.64-.2,1.92-.32,2.94-.27,2.07-.41,3.13-.34,2.14-.51,3.22-.39,2.15-.59,3.2-.45,2.08-.71,3.07-.5,1.95-.78,2.84-.56,1.74-.81,2.52l-.8,2.08-.18.45c-.06.14-.13.28-.19.41l-.34.72-.63,1.38.83-1.27.44-.68.24-.38c.07-.15.15-.29.22-.44.31-.6.66-1.28,1-2s.66-1.6,1-2.48.63-1.86.94-2.85.55-2,.82-3.1.45-2.15.64-3.24.36-2.19.47-3.27.24-2.15.32-3.18.13-2,.17-3,0-1.85.05-2.67A51.68,51.68,0,0,0,263.72,240.54Z" transform="translate(-123.34 -147.12)"/><path class="cls-5" d="M257.38,242s-.12,2-.29,5.11c-.09,1.53-.19,3.32-.3,5.23-.07.95-.13,1.94-.2,2.94s-.14,2-.24,3-.17,2-.28,3-.21,2-.34,2.92-.26,1.85-.41,2.71-.3,1.67-.46,2.42-.34,1.41-.51,2-.34,1.11-.51,1.52a9.77,9.77,0,0,1-.4.95l-.15.34.21-.31a9.62,9.62,0,0,0,.55-.89,13.66,13.66,0,0,0,.71-1.47c.12-.29.24-.6.38-.93l.36-1.05.35-1.16.32-1.25c.2-.87.4-1.78.56-2.73s.33-1.94.45-2.95.23-2,.32-3.05.15-2.06.2-3.07.08-2,.1-3c0-1.93,0-3.72-.05-5.26C257.64,244.07,257.38,242,257.38,242Z" transform="translate(-123.34 -147.12)"/></g><polygon class="cls-6" points="128.76 104.91 122.94 104.91 117.11 104.91 112.13 125.13 122.94 140.12 133.75 123.9 128.76 104.91"/><path class="cls-7" d="M252.1,252H240.45L239.23,257c3.45,3.47,10.61,5.76,15,3.28Z" transform="translate(-123.34 -147.12)"/><path class="cls-6" d="M225.6,232.11s-3.5-5.64-5.61-3,1.29,9.15,5.61,8Z" transform="translate(-123.34 -147.12)"/><path class="cls-6" d="M267,232.11s3.51-5.64,5.61-3-1.28,9.15-5.61,8Z" transform="translate(-123.34 -147.12)"/><path class="cls-6" d="M246.35,201.44c-23.86,0-22,30.48-21.52,37.91s5,10,11,14.67,10.53,4.18,10.53,4.18,4.56.49,10.53-4.18,10.52-7.24,11-14.67S270.21,201.44,246.35,201.44Z" transform="translate(-123.34 -147.12)"/><path class="cls-8" d="M268,228.44a89.9,89.9,0,0,1-.18,9.29c-.47,7.44-5,10-11,14.67s-10.53,4.18-10.53,4.18-4.56.5-10.53-4.18-10.52-7.23-11-14.67c0-.38-.05-.82-.08-1.31.05,1.18.11,2.17.16,2.93.47,7.43,5,10,11,14.67s10.53,4.18,10.53,4.18,4.56.49,10.53-4.18,10.52-7.24,11-14.67A88.8,88.8,0,0,0,268,228.44Z" transform="translate(-123.34 -147.12)"/><path class="cls-9" d="M276.5,267.88l-21.55-5c0,6.75-7.59,6.73-8.2,6.61h-.05c-.61.12-8.92.14-8.92-6.61l-20.83,5,4.44,20.55s-5.72,12.53,4.25,21.39l1.83,30.56h39.14l1.2-30.56c10-8.86,4.24-21.39,4.24-21.39Z" transform="translate(-123.34 -147.12)"/><path class="cls-10" d="M246.7,271.58h.05c.77.15,10.24.17,10.36-8.19l-2.16-.5c0,6.75-7.59,6.73-8.2,6.61h-.05c-.61.12-8.92.14-8.92-6.61l-2.35.56C235.61,271.75,245.93,271.73,246.7,271.58Z" transform="translate(-123.34 -147.12)"/><path class="cls-11" d="M252.37,229s-.15-1.73.44-2.07,5.84-.52,7.76,0,2.73,2.91,2.73,2.91-.69-1-3.65-1.31C257.48,228.3,253.11,229.33,252.37,229Z" transform="translate(-123.34 -147.12)"/><path class="cls-11" d="M240.33,229s.15-1.73-.44-2.07-5.84-.52-7.76,0-2.74,2.91-2.74,2.91.7-1,3.66-1.31C235.22,228.3,239.59,229.33,240.33,229Z" transform="translate(-123.34 -147.12)"/><path class="cls-12" d="M259.26,234.84c0,1.27-.69,2.3-1.56,2.3s-1.55-1-1.55-2.3.69-2.3,1.55-2.3S259.26,233.57,259.26,234.84Z" transform="translate(-123.34 -147.12)"/><path class="cls-12" d="M236.89,234.84c0,1.27-.7,2.3-1.56,2.3s-1.56-1-1.56-2.3.7-2.3,1.56-2.3S236.89,233.57,236.89,234.84Z" transform="translate(-123.34 -147.12)"/><path class="cls-13" d="M239.46,246.67s2,4.82,6.89,4.82,6.88-4.82,6.88-4.82S247.55,249.21,239.46,246.67Z" transform="translate(-123.34 -147.12)"/><path class="cls-14" d="M239.47,246.7s3.35,2.76,7,2.76,6.71-2.76,6.71-2.76S247.47,249.9,239.47,246.7Z" transform="translate(-123.34 -147.12)"/><path class="cls-13" d="M253.42,246.54s-4.79-.3-5.71,0a3.64,3.64,0,0,1-1.27.31,3.51,3.51,0,0,1-1.27-.31c-.92-.3-5.71,0-5.71,0C245.09,249.35,252.38,247.6,253.42,246.54Z" transform="translate(-123.34 -147.12)"/><path class="cls-13" d="M238.33,246.17c4.78,2.47,11.31,2.64,16,0,.1-.06,0-.2-.11-.14a17.47,17.47,0,0,1-15.82,0c-.11-.05-.22.08-.11.14Z" transform="translate(-123.34 -147.12)"/><path class="cls-15" d="M243.86,242l.87.3c.25.07.52.16.8.22l.43.08a3,3,0,0,0,.42,0,2,2,0,0,0,.42,0,2.9,2.9,0,0,0,.41-.06c.13,0,.26-.08.4-.1s.25-.1.37-.13.24-.08.34-.13a2.49,2.49,0,0,1,.26-.11l.26-.09s0,.09-.1.25a2,2,0,0,1-.36.61,2.23,2.23,0,0,1-.34.35,3.19,3.19,0,0,1-.47.31,2.86,2.86,0,0,1-.58.21,2.78,2.78,0,0,1-.64.06,2.59,2.59,0,0,1-.63-.1,2.51,2.51,0,0,1-.56-.22,2.79,2.79,0,0,1-.8-.63A2.18,2.18,0,0,1,243.86,242Z" transform="translate(-123.34 -147.12)"/><g class="cls-16"><path class="cls-13" d="M236,241.15a4.38,4.38,0,1,1-4.34-3.82A4.1,4.1,0,0,1,236,241.15Z" transform="translate(-123.34 -147.12)"/><path class="cls-13" d="M266,241.15a4.38,4.38,0,1,1-4.35-3.82A4.11,4.11,0,0,1,266,241.15Z" transform="translate(-123.34 -147.12)"/></g><path class="cls-17" d="M276.39,267.88a21.07,21.07,0,0,1,11.4,11.42c3.69,8.78,12.72,35.23,11.25,41.11-1.58,6.32-32.13,18.48-32.13,18.48l-4.62-8s18.9-13.23,22-15.75l-12.29-26.73Z" transform="translate(-123.34 -147.12)"/><path class="cls-17" d="M217,267.88a21,21,0,0,0-11.39,11.42c-3.69,8.78-12.72,35.23-11.25,41.11,1.58,6.32,32.13,18.48,32.13,18.48l4.62-8s-18.9-13.23-22-15.75l12.31-26.73Z" transform="translate(-123.34 -147.12)"/><path class="cls-17" d="M257,309.41c-4.17-1.29-8.11-2.38-10.26-2.38h0c-2.15,0-6.09,1.09-10.26,2.38a14.83,14.83,0,0,1-7.16.6c3,1.84,7.06,2.09,11.13.6a19.5,19.5,0,0,1,6.29-1.29h0a23.74,23.74,0,0,1,6.29,1.29c4.14,1.39,8.16,1.24,11.12-.6A14.79,14.79,0,0,1,257,309.41Z" transform="translate(-123.34 -147.12)"/><path class="cls-18" d="M272.52,230.27a1.54,1.54,0,0,0-2.22-.2.33.33,0,0,0-.16.15c-1,1.05-1.6,3.42-1.78,4.52-.08.46.62.65.69.2a10.6,10.6,0,0,1,1.38-4,2.72,2.72,0,0,1,0,2.78c-.24.4.39.76.63.37a3.48,3.48,0,0,0,0-3.59,1,1,0,0,1,1,.29C272.36,231.09,272.87,230.58,272.52,230.27Z" transform="translate(-123.34 -147.12)"/><path class="cls-18" d="M220.45,230.27a1.54,1.54,0,0,1,2.22-.2.33.33,0,0,1,.16.15c1,1.05,1.61,3.42,1.79,4.52.07.46-.63.65-.7.2a10.43,10.43,0,0,0-1.38-4,2.74,2.74,0,0,0,0,2.78c.24.4-.38.76-.63.37a3.46,3.46,0,0,1,0-3.59,1,1,0,0,0-1,.29C220.61,231.09,220.1,230.58,220.45,230.27Z" transform="translate(-123.34 -147.12)"/><path class="cls-6" d="M263.36,332.76s-6.64-.1-7.7.86-4.23,6.84-3.75,7.42,8-.77,9.91-1.54,4.48-1.67,4.48-1.67Z" transform="translate(-123.34 -147.12)"/><path class="cls-6" d="M229.79,332.76s6.64-.1,7.7.86,4.24,6.84,3.75,7.42-8-.77-9.91-1.54-4.47-1.67-4.47-1.67Z" transform="translate(-123.34 -147.12)"/><path class="cls-3" d="M224.63,230.76s11.46-5.91,14.6-17.18c0,0,9.39,15.87,28.84,17.18,0,0,1.87-2.59,4-2.09,0,0,1.34-30.49-25.76-30.49s-24.79,30.26-24.79,30.26A7.49,7.49,0,0,1,224.63,230.76Z" transform="translate(-123.34 -147.12)"/><g class="cls-4"><path class="cls-5" d="M242.76,208.67s.27.35.77.91,1.2,1.38,2.1,2.3c.43.47.94,1,1.46,1.46s1.1,1,1.69,1.57,1.21,1.07,1.88,1.58c.32.27.65.53,1,.79s.69.5,1,.75.68.52,1,.75l1.06.69c.69.47,1.4.88,2.09,1.28s1.37.75,2,1.09l.95.49.91.4c.59.26,1.12.52,1.61.72l1.26.47,1.11.45-1.17-.23-1.34-.27c-.52-.13-1.08-.32-1.71-.52l-1-.31c-.33-.12-.66-.27-1-.41a22.37,22.37,0,0,1-2.14-1,23.25,23.25,0,0,1-2.21-1.24l-1.1-.69c-.36-.24-.71-.5-1.07-.75s-.71-.52-1-.79l-1-.83q-.51-.4-1-.84l-.91-.86c-.58-.58-1.12-1.15-1.61-1.71s-.95-1.11-1.34-1.63-.75-1-1-1.44-.54-.83-.74-1.15C243,209.07,242.76,208.67,242.76,208.67Z" transform="translate(-123.34 -147.12)"/><path class="cls-5" d="M245.55,204.63s1.14,1,2.87,2.47l1.4,1.16,1.58,1.27c1.12.85,2.3,1.78,3.53,2.63l.91.66.92.61c.61.42,1.22.82,1.81,1.19s1.17.73,1.73,1.06,1.07.65,1.57.91l1.34.76,1.06.55c.59.31.92.5.92.5l-1-.29-1.15-.36c-.44-.15-.93-.35-1.46-.56-.26-.11-.55-.21-.83-.34l-.86-.41a20.06,20.06,0,0,1-1.83-.95c-.63-.35-1.28-.7-1.9-1.12l-1-.62-.94-.65c-.62-.44-1.22-.91-1.82-1.37s-1.14-1-1.69-1.42c-1.06-1-2-1.88-2.79-2.73s-1.38-1.58-1.79-2.1S245.55,204.63,245.55,204.63Z" transform="translate(-123.34 -147.12)"/><path class="cls-5" d="M247.29,201.55a19.78,19.78,0,0,1,3.71.57c.55.14,1.15.28,1.76.49l1,.3,1,.38c.67.25,1.33.57,2,.89s1.32.71,2,1.11l.94.63.47.32.44.36a13.69,13.69,0,0,1,1.66,1.45c.25.25.51.49.74.74a9.26,9.26,0,0,1,.65.78,11.36,11.36,0,0,1,1.08,1.49l.78,1.34c.19.42.33.8.45,1.11.24.61.37,1,.37,1s-.22-.31-.57-.86c-.18-.27-.39-.6-.63-1s-.61-.74-.94-1.18a23.19,23.19,0,0,0-2.62-2.65,20.1,20.1,0,0,0-1.64-1.32l-.43-.32-.45-.3-.91-.59c-.62-.39-1.26-.75-1.89-1.1s-1.25-.68-1.89-.95l-.92-.42-.89-.39c-.59-.25-1.15-.45-1.66-.66-1-.38-1.92-.69-2.54-.89S247.29,201.55,247.29,201.55Z" transform="translate(-123.34 -147.12)"/><path class="cls-5" d="M237.85,208.67s-.06.35-.22.93a24.66,24.66,0,0,1-.82,2.37,29.4,29.4,0,0,1-1.53,3.22c-.34.56-.64,1.16-1,1.72s-.76,1.16-1.18,1.72c-.21.28-.41.56-.63.83l-.66.79a17.84,17.84,0,0,1-1.36,1.49,18.14,18.14,0,0,1-1.36,1.3l-.65.58-.65.49c-.42.31-.8.6-1.15.84l-.93.57-.82.48s.24-.25.68-.66l.79-.73,1-1,.56-.56.57-.63c.4-.43.82-.88,1.22-1.37s.84-1,1.25-1.5l.63-.79.59-.82c.42-.53.8-1.09,1.18-1.64s.73-1.1,1.09-1.63.67-1.06,1-1.56.58-1,.83-1.42C237.23,209.91,237.85,208.67,237.85,208.67Z" transform="translate(-123.34 -147.12)"/><path class="cls-5" d="M240.35,202.61l-.24.07-.67.25c-.28.12-.62.24-1,.43s-.79.41-1.25.65c-.22.11-.44.27-.68.41s-.48.29-.71.47l-.73.52-.73.59c-.51.38-1,.87-1.45,1.31s-.91,1-1.35,1.5-.86,1.05-1.22,1.62-.76,1.09-1.06,1.65-.61,1.1-.91,1.62l-.71,1.5c-.11.24-.22.46-.33.67l-.25.63c-.16.39-.31.73-.42,1-.24.57-.39.89-.39.89s.05-.35.17-1c.06-.3.13-.67.22-1.09.05-.21.09-.44.15-.67s.15-.47.23-.72c.16-.51.34-1.06.55-1.63s.51-1.15.8-1.75a8.64,8.64,0,0,1,.49-.89c.17-.3.35-.6.54-.89.36-.6.83-1.15,1.25-1.73s1-1.07,1.47-1.56a14.92,14.92,0,0,1,1.6-1.32c.27-.2.53-.4.81-.57l.82-.48a15.48,15.48,0,0,1,1.56-.74,13.91,13.91,0,0,1,1.38-.46,9.23,9.23,0,0,1,1.09-.24A6.79,6.79,0,0,1,240.35,202.61Z" transform="translate(-123.34 -147.12)"/></g><path class="cls-19" d="M223.28,224.47l-3.46,0c0-.28.43-28.48,26.93-28.48s26.73,28.21,26.73,28.49H270c0-1-.32-25-23.26-25-9.68,0-16.55,4.17-20.44,12.39A33.56,33.56,0,0,0,223.28,224.47Z" transform="translate(-123.34 -147.12)"/><path class="cls-20" d="M223.28,224.47a33.56,33.56,0,0,1,3-12.65c3.89-8.22,10.76-12.39,20.44-12.39,22.94,0,23.26,24,23.26,25h1.82c-.17-3.61-2.13-26.28-25.09-26.28s-25.1,22.7-25.28,26.28Z" transform="translate(-123.34 -147.12)"/><path class="cls-19" d="M269.57,238.07l-9.49,8.13c-.77.65.2,1.89,1,1.23l9.5-8.12c.77-.66-.2-1.9-1-1.24Z" transform="translate(-123.34 -147.12)"/><path class="cls-21" d="M263.7,244.37a1.7,1.7,0,0,1-.27,2.39l-2.65,2.1a1.7,1.7,0,0,1-2.38-.27h0a1.71,1.71,0,0,1,.27-2.39l2.65-2.1a1.69,1.69,0,0,1,2.38.27Z" transform="translate(-123.34 -147.12)"/><path class="cls-22" d="M263.7,244.37a1.69,1.69,0,0,0-1.61-.61,2.13,2.13,0,0,1,.26.26,1.69,1.69,0,0,1-.28,2.38l-2.64,2.11a1.65,1.65,0,0,1-.77.33,1.69,1.69,0,0,0,2.12,0l2.65-2.1A1.7,1.7,0,0,0,263.7,244.37Z" transform="translate(-123.34 -147.12)"/><path class="cls-21" d="M222.85,222.63h-1.3v.68c-1.33,1.4-2.28,4.89-2.28,9s.95,7.59,2.28,9V242h1.3c2,0,3.58-4.33,3.58-9.67S224.83,222.63,222.85,222.63Z" transform="translate(-123.34 -147.12)"/><path class="cls-19" d="M221.55,222.63a1.64,1.64,0,0,0-.93.34c-1.35.72-3.69,2.88-3.69,9.33,0,5.8,1.89,8.06,3.26,8.94a1.87,1.87,0,0,0,1.36.73c2,0,3.58-4.33,3.58-9.67S223.53,222.63,221.55,222.63Z" transform="translate(-123.34 -147.12)"/><path class="cls-23" d="M222.58,223a18.18,18.18,0,0,1,1.5,7.86c0,5.34-1.6,9.67-3.58,9.67a1.85,1.85,0,0,1-1.36-.73,4.62,4.62,0,0,1-.79-.63,5.72,5.72,0,0,0,1.84,2,1.87,1.87,0,0,0,1.36.73c2,0,3.58-4.33,3.58-9.67C225.13,227.93,224.05,224.24,222.58,223Z" transform="translate(-123.34 -147.12)"/><path class="cls-24" d="M220.3,225.23l-.11.48c-.07.31-.16.73-.25,1.23,0,.25-.09.51-.13.79s-.1.57-.14.88-.07.62-.12.93-.08.65-.11,1l-.09,1c0,.32,0,.64-.07.95s0,.62-.07.91,0,.57-.05.83c0,.52-.06,1-.1,1.28a4.48,4.48,0,0,1-.07.5,4.19,4.19,0,0,1-.19-.44,8.66,8.66,0,0,1-.39-1.23c-.06-.26-.13-.55-.18-.85s-.08-.64-.11-1,0-.7,0-1.06,0-.74.06-1.11.09-.73.16-1.09a10.13,10.13,0,0,1,.26-1,6.91,6.91,0,0,1,.33-.91,6.75,6.75,0,0,1,.37-.76,4.92,4.92,0,0,1,.7-1A2.72,2.72,0,0,1,220.3,225.23Z" transform="translate(-123.34 -147.12)"/><path class="cls-21" d="M269.92,222.63h1.3v.68c1.34,1.4,2.28,4.89,2.28,9s-.94,7.59-2.28,9V242h-1.3c-2,0-3.58-4.33-3.58-9.67S267.94,222.63,269.92,222.63Z" transform="translate(-123.34 -147.12)"/><path class="cls-19" d="M271.22,222.63a1.59,1.59,0,0,1,.93.34c1.35.72,3.7,2.88,3.7,9.33,0,5.8-1.9,8.06-3.26,8.94a1.87,1.87,0,0,1-1.37.73c-2,0-3.58-4.33-3.58-9.67S269.25,222.63,271.22,222.63Z" transform="translate(-123.34 -147.12)"/><path class="cls-23" d="M270.19,223a18.33,18.33,0,0,0-1.5,7.86c0,5.34,1.61,9.67,3.58,9.67a1.87,1.87,0,0,0,1.37-.73,5,5,0,0,0,.78-.63,5.71,5.71,0,0,1-1.83,2,1.87,1.87,0,0,1-1.37.73c-2,0-3.58-4.33-3.58-9.67C267.64,227.93,268.72,224.24,270.19,223Z" transform="translate(-123.34 -147.12)"/><path class="cls-24" d="M272.48,225.23l.11.48c.06.31.15.73.24,1.23,0,.25.09.51.14.79s.09.57.13.88.08.62.13.93.07.65.1,1l.09,1c0,.32.05.64.08.95s0,.62.06.91,0,.57.05.83c.05.52.07,1,.11,1.28s.06.5.06.5a4.19,4.19,0,0,0,.19-.44,7.53,7.53,0,0,0,.39-1.23c.06-.26.13-.55.18-.85s.08-.64.11-1,0-.7,0-1.06,0-.74-.06-1.11-.1-.73-.17-1.09-.15-.7-.25-1a8.71,8.71,0,0,0-.33-.91c-.12-.29-.25-.53-.37-.76a5.32,5.32,0,0,0-.71-1A3.4,3.4,0,0,0,272.48,225.23Z" transform="translate(-123.34 -147.12)"/><rect class="cls-19" x="20.28" y="198.13" width="206.19" height="10.12"/><path class="cls-25" d="M359.19,348a2.83,2.83,0,0,1-2.89,2.75H137.12a2.76,2.76,0,1,1,0-5.51H356.3A2.83,2.83,0,0,1,359.19,348Z" transform="translate(-123.34 -147.12)"/><path class="cls-26" d="M297.73,342.82a2.43,2.43,0,0,1-2.44,2.43H198.13a2.43,2.43,0,0,1-2.44-2.43h0a2.44,2.44,0,0,1,2.44-2.44h97.16a2.44,2.44,0,0,1,2.44,2.44Z" transform="translate(-123.34 -147.12)"/><rect class="cls-27" x="80.05" y="142.41" width="86.64" height="51.64" rx="4.62" ry="4.62"/><path class="cls-19" d="M250.13,315a3.42,3.42,0,1,1-3.42-3.42A3.42,3.42,0,0,1,250.13,315Z" transform="translate(-123.34 -147.12)"/><path class="cls-28" d="M285.41,289.54H268.74c-1,31.37-43.68,46.15-62.71,51.18a4.54,4.54,0,0,0,2,.46h77.4a4.63,4.63,0,0,0,4.62-4.62v-42.4A4.63,4.63,0,0,0,285.41,289.54Z" transform="translate(-123.34 -147.12)"/><path class="cls-19" d="M182.86,193.14H157a5.68,5.68,0,0,0-5.68,5.68v18.32a5.67,5.67,0,0,0,5.68,5.67h12.62l7.23,5.3v-5.3h6a5.67,5.67,0,0,0,5.68-5.67V198.82A5.68,5.68,0,0,0,182.86,193.14Z" transform="translate(-123.34 -147.12)"/><path class="cls-29" d="M170.86,200.38a.85.85,0,0,1-.86.86H156.75a.85.85,0,0,1-.86-.86h0a.86.86,0,0,1,.86-.87H170a.86.86,0,0,1,.86.87Z" transform="translate(-123.34 -147.12)"/><path class="cls-29" d="M185.05,205.11a.86.86,0,0,1-.86.86H156.75a.85.85,0,0,1-.86-.86h0a.86.86,0,0,1,.86-.87h27.44a.87.87,0,0,1,.86.87Z" transform="translate(-123.34 -147.12)"/><path class="cls-29" d="M185.05,209.84a.86.86,0,0,1-.86.86H156.75a.85.85,0,0,1-.86-.86h0a.86.86,0,0,1,.86-.87h27.44a.87.87,0,0,1,.86.87Z" transform="translate(-123.34 -147.12)"/><path class="cls-29" d="M180.32,214.57a.86.86,0,0,1-.86.86H156.75a.85.85,0,0,1-.86-.86h0a.86.86,0,0,1,.86-.87h22.71a.87.87,0,0,1,.86.87Z" transform="translate(-123.34 -147.12)"/><path class="cls-30" d="M182.86,193.14h-.46c.24,15.31-11.73,24.73-20.88,29.67h8.1l7.23,4.72v-4.72h6a5.67,5.67,0,0,0,5.68-5.67V198.82A5.68,5.68,0,0,0,182.86,193.14Z" transform="translate(-123.34 -147.12)"/><rect class="cls-9" x="28.63" y="118.88" width="25.43" height="15.83"/><polygon class="cls-17" points="28.63 118.88 54.06 118.88 41.34 129.95 28.63 118.88"/><g class="cls-31"><path class="cls-17" d="M152.39,282.35,161,270.9c.52-.69-.32-1.72-.84-1l-8.61,11.46c-.52.69.32,1.71.84,1Z" transform="translate(-123.34 -147.12)"/><path class="cls-17" d="M177.62,281.33,169,269.87c-.52-.69-1.36.34-.84,1l8.61,11.45c.52.69,1.36-.33.84-1Z" transform="translate(-123.34 -147.12)"/></g><path class="cls-30" d="M160.83,281.84H177.4V266h-7.51C171.35,273.89,166.21,278.86,160.83,281.84Z" transform="translate(-123.34 -147.12)"/><path class="cls-9" d="M315.33,239.8H292.5a2.74,2.74,0,0,0-2.74,2.74v8.85a2.74,2.74,0,0,0,2.74,2.74h11.27l3.49,4.23v-4.23h8.07a2.74,2.74,0,0,0,2.74-2.74v-8.85A2.73,2.73,0,0,0,315.33,239.8Z" transform="translate(-123.34 -147.12)"/><path class="cls-14" d="M298.25,246.7a1.57,1.57,0,1,1-1.57-1.56A1.57,1.57,0,0,1,298.25,246.7Z" transform="translate(-123.34 -147.12)"/><path class="cls-14" d="M305.48,246.7a1.57,1.57,0,1,1-1.56-1.56A1.56,1.56,0,0,1,305.48,246.7Z" transform="translate(-123.34 -147.12)"/><path class="cls-14" d="M312.72,246.7a1.57,1.57,0,1,1-1.57-1.56A1.57,1.57,0,0,1,312.72,246.7Z" transform="translate(-123.34 -147.12)"/><path class="cls-30" d="M315.33,239.8H312c.49,8.06-7.42,12.24-14.15,14.33h5.94l3.49,4.23v-4.23h8.07a2.74,2.74,0,0,0,2.74-2.74v-8.85A2.73,2.73,0,0,0,315.33,239.8Z" transform="translate(-123.34 -147.12)"/><path class="cls-19" d="M313.13,192.83a4.32,4.32,0,0,0-2.66.3,14.67,14.67,0,0,0-1.22-2.95c.95-.47,1.89-1.07,2.1-1.65.49-1.4-2.15-4.05-2.15-4.05s-2.62-2.62-4.05-2.14c-.58.19-1.18,1.13-1.65,2.08a14.52,14.52,0,0,0-3-1.22,4.37,4.37,0,0,0,.31-2.65c-.63-1.34-4.37-1.34-4.37-1.34s-3.72,0-4.38,1.34a4.29,4.29,0,0,0,.3,2.65,14.67,14.67,0,0,0-2.95,1.22c-.48-.94-1.07-1.88-1.66-2.09-1.4-.5-4,2.15-4,2.15s-2.62,2.62-2.15,4c.2.59,1.14,1.19,2.09,1.66a14.67,14.67,0,0,0-1.22,2.95,4.45,4.45,0,0,0-2.65-.31c-1.34.64-1.34,4.38-1.34,4.38s0,3.71,1.34,4.38a4.31,4.31,0,0,0,2.65-.31,14.52,14.52,0,0,0,1.22,3c-.94.47-1.88,1.07-2.09,1.65-.5,1.4,2.14,4.05,2.14,4.05s2.63,2.62,4.05,2.14c.59-.19,1.18-1.14,1.66-2.09a14.67,14.67,0,0,0,2.95,1.22,4.49,4.49,0,0,0-.31,2.66c.64,1.34,4.38,1.34,4.38,1.34s3.71,0,4.38-1.34a4.33,4.33,0,0,0-.31-2.66,14.52,14.52,0,0,0,3-1.22c.47,1,1.07,1.89,1.65,2.1,1.4.5,4-2.15,4-2.15s2.63-2.62,2.15-4c-.2-.59-1.14-1.19-2.09-1.66a14.52,14.52,0,0,0,1.22-3,4.43,4.43,0,0,0,2.66.32c1.34-.64,1.34-4.38,1.34-4.38S314.47,193.5,313.13,192.83ZM296.47,204a6.75,6.75,0,1,1,6.75-6.75A6.75,6.75,0,0,1,296.47,204Z" transform="translate(-123.34 -147.12)"/><g class="cls-32"><path class="cls-21" d="M296.47,207.55a10.35,10.35,0,1,1,10.35-10.35A10.36,10.36,0,0,1,296.47,207.55Zm0-18.64a8.3,8.3,0,1,0,8.29,8.29A8.3,8.3,0,0,0,296.47,188.91Z" transform="translate(-123.34 -147.12)"/></g><path class="cls-30" d="M287.79,212.07c.59-.19,1.18-1.14,1.66-2.09a14.67,14.67,0,0,0,2.95,1.22,4.49,4.49,0,0,0-.31,2.66c.64,1.34,4.38,1.34,4.38,1.34s3.71,0,4.38-1.34a4.33,4.33,0,0,0-.31-2.66,14.52,14.52,0,0,0,3-1.22c.47,1,1.07,1.89,1.65,2.1,1.4.5,4-2.15,4-2.15s2.63-2.62,2.15-4c-.2-.59-1.14-1.19-2.09-1.66a14.52,14.52,0,0,0,1.22-3,4.43,4.43,0,0,0,2.66.32c1.34-.64,1.34-4.38,1.34-4.38s0-3.71-1.34-4.38a4.32,4.32,0,0,0-2.66.3,14.67,14.67,0,0,0-1.22-2.95c.95-.47,1.89-1.07,2.1-1.65.49-1.4-2.15-4.05-2.15-4.05s-.28-.28-.7-.63a30.81,30.81,0,0,1-5.69,11,6.85,6.85,0,0,1,.41,2.31,6.75,6.75,0,0,1-9.6,6.12A62.72,62.72,0,0,1,283,209.13c.4.48.71.8.71.8S286.37,212.55,287.79,212.07Z" transform="translate(-123.34 -147.12)"/><path class="cls-9" d="M195,171.71a2.21,2.21,0,0,0-1.35.16,7.61,7.61,0,0,0-.61-1.5c.48-.24.95-.54,1.06-.84.25-.7-1.09-2-1.09-2s-1.33-1.33-2.05-1.09c-.29.1-.6.58-.84,1.06a7.21,7.21,0,0,0-1.49-.62,2.15,2.15,0,0,0,.15-1.34c-.32-.68-2.21-.68-2.21-.68s-1.88,0-2.22.68a2.1,2.1,0,0,0,.16,1.34,7.07,7.07,0,0,0-1.5.62c-.24-.48-.54-1-.84-1.06-.71-.26-2.05,1.08-2.05,1.08s-1.32,1.33-1.08,2.05c.1.3.58.6,1.06.84a7.07,7.07,0,0,0-.62,1.5,2.27,2.27,0,0,0-1.35-.16c-.68.32-.68,2.22-.68,2.22s0,1.88.68,2.21a2.18,2.18,0,0,0,1.35-.15,7.21,7.21,0,0,0,.62,1.49c-.48.24-1,.55-1.06.84-.26.71,1.08,2.05,1.08,2.05s1.33,1.33,2.05,1.09c.3-.1.6-.58.84-1.06a7.63,7.63,0,0,0,1.5.62,2.17,2.17,0,0,0-.16,1.34c.32.68,2.21.68,2.21.68s1.88,0,2.22-.68a2.15,2.15,0,0,0-.15-1.34,7.8,7.8,0,0,0,1.49-.62c.24.48.54.95.84,1.06.71.25,2.05-1.09,2.05-1.09s1.33-1.33,1.08-2.05c-.1-.29-.57-.6-1-.84a7.77,7.77,0,0,0,.61-1.49,2.27,2.27,0,0,0,1.35.16c.68-.33.68-2.22.68-2.22S195.66,172.05,195,171.71Zm-8.43,5.64a3.42,3.42,0,1,1,3.41-3.42A3.42,3.42,0,0,1,186.55,177.35Z" transform="translate(-123.34 -147.12)"/><g class="cls-32"><path class="cls-17" d="M186.55,179.17a5.24,5.24,0,1,1,5.24-5.24A5.25,5.25,0,0,1,186.55,179.17Zm0-9.44a4.2,4.2,0,1,0,4.19,4.2A4.2,4.2,0,0,0,186.55,169.73Z" transform="translate(-123.34 -147.12)"/></g><path class="cls-30" d="M182.15,181.46c.3-.1.6-.58.84-1.06a7.63,7.63,0,0,0,1.5.62,2.17,2.17,0,0,0-.16,1.34c.32.68,2.21.68,2.21.68s1.88,0,2.22-.68a2.15,2.15,0,0,0-.15-1.34,7.8,7.8,0,0,0,1.49-.62c.24.48.54.95.84,1.06.71.25,2.05-1.09,2.05-1.09s1.33-1.33,1.08-2.05c-.1-.29-.57-.6-1-.84a7.77,7.77,0,0,0,.61-1.49,2.27,2.27,0,0,0,1.35.16c.68-.33.68-2.22.68-2.22s0-1.88-.68-2.22a2.21,2.21,0,0,0-1.35.16,7.61,7.61,0,0,0-.61-1.5c.48-.24.95-.54,1.06-.84.25-.7-1.09-2-1.09-2l-.16-.15a21.34,21.34,0,0,1-3.23,5,3.49,3.49,0,0,1,.36,1.54,3.41,3.41,0,0,1-5.2,2.91,36.29,36.29,0,0,1-5,3.09c.22.26.39.44.39.44S181.43,181.7,182.15,181.46Z" transform="translate(-123.34 -147.12)"/><path class="cls-33" d="M181.77,236.29H202a2.42,2.42,0,0,1,2.42,2.43v7.82A2.42,2.42,0,0,1,202,249H192l-3.09,3.74V249h-7.14a2.42,2.42,0,0,1-2.42-2.42v-7.82A2.42,2.42,0,0,1,181.77,236.29Z" transform="translate(-123.34 -147.12)"/><path class="cls-14" d="M191.5,240.05c-.74-.43-1.84,0-2.72,1-.88-1-2-1.44-2.72-1-.94.54-.95,2.27,0,3.85a2.87,2.87,0,0,0,5.5,0C192.45,242.32,192.43,240.59,191.5,240.05Z" transform="translate(-123.34 -147.12)"/><text class="cls-34" transform="translate(70.59 98.82)">1</text><path class="cls-30" d="M204.38,238.72a2.42,2.42,0,0,0-2.42-2.43h-4.15c.31,7.1-6.3,10.8-12.12,12.67h3.22v3.74L192,249h10a2.42,2.42,0,0,0,2.42-2.42Z" transform="translate(-123.34 -147.12)"/><path class="cls-33" d="M203.56,177.34h20.19a2.42,2.42,0,0,1,2.42,2.42v7.82a2.42,2.42,0,0,1-2.42,2.43h-10l-3.09,3.74V190h-7.14a2.42,2.42,0,0,1-2.42-2.43v-7.82A2.42,2.42,0,0,1,203.56,177.34Z" transform="translate(-123.34 -147.12)"/><text class="cls-34" transform="translate(92.38 39.63)">1</text><path class="cls-14" d="M212.77,181.6h-4.11a.9.9,0,0,0-.91.9v2.91a.9.9,0,0,0,.91.9h2l1.15,1.39v-1.39h1a.9.9,0,0,0,.9-.9V182.5A.9.9,0,0,0,212.77,181.6Z" transform="translate(-123.34 -147.12)"/><path class="cls-30" d="M226.17,179.76a2.42,2.42,0,0,0-2.42-2.42H219.6c.31,7.09-6.3,10.79-12.12,12.67h3.22v3.74l3.09-3.74h10a2.42,2.42,0,0,0,2.42-2.43Z" transform="translate(-123.34 -147.12)"/><circle class="cls-33" cx="337.68" cy="219.44" r="14.86" transform="translate(-13.47 404.4) rotate(-88.57)"/><path class="cls-14" d="M345.08,213.08l-8.3,7.48-5.28-2.65c-1.08-.53-2,1.08-.95,1.62l5.91,3a1,1,0,0,0,1.13-.15l8.81-7.94C347.3,213.6,346,212.28,345.08,213.08Z" transform="translate(-123.34 -147.12)"/><circle class="cls-35" cx="214.34" cy="59.95" r="0.77"/><path class="cls-35" d="M338.45,232a.77.77,0,1,1-.77-.78A.77.77,0,0,1,338.45,232Z" transform="translate(-123.34 -147.12)"/><path class="cls-35" d="M350.13,220.29a.77.77,0,1,1,.77-.77A.77.77,0,0,1,350.13,220.29Z" transform="translate(-123.34 -147.12)"/><path class="cls-35" d="M325.23,220.29a.77.77,0,1,1,0-1.54.77.77,0,0,1,0,1.54Z" transform="translate(-123.34 -147.12)"/><path class="cls-35" d="M344.63,209.16a.77.77,0,0,1-1.33-.77.77.77,0,1,1,1.33.77Z" transform="translate(-123.34 -147.12)"/><path class="cls-35" d="M332.06,230.65a.77.77,0,0,1-1.05.28.78.78,0,0,1-.28-1.06.77.77,0,0,1,1.06-.27A.76.76,0,0,1,332.06,230.65Z" transform="translate(-123.34 -147.12)"/><path class="cls-35" d="M348,226.47a.78.78,0,0,1-.27-1.06.77.77,0,0,1,1.05-.27.76.76,0,0,1,.28,1.05A.78.78,0,0,1,348,226.47Z" transform="translate(-123.34 -147.12)"/><path class="cls-35" d="M326.55,213.9a.77.77,0,1,1,1.05-.28A.76.76,0,0,1,326.55,213.9Z" transform="translate(-123.34 -147.12)"/><path class="cls-35" d="M330.73,209.16a.77.77,0,0,0,1.06.28.77.77,0,0,0-.78-1.33A.77.77,0,0,0,330.73,209.16Z" transform="translate(-123.34 -147.12)"/><path class="cls-35" d="M343.3,230.65a.77.77,0,1,0,1.33-.78.77.77,0,0,0-1.33.78Z" transform="translate(-123.34 -147.12)"/><path class="cls-35" d="M327.33,226.47a.77.77,0,1,0-1.06-.28A.78.78,0,0,0,327.33,226.47Z" transform="translate(-123.34 -147.12)"/><path class="cls-35" d="M348.82,213.9a.77.77,0,1,0-1.06-.28A.77.77,0,0,0,348.82,213.9Z" transform="translate(-123.34 -147.12)"/><text class="cls-36" transform="translate(118.09 23.45)">24/7</text><path class="cls-37" d="M261,168a13.19,13.19,0,1,1-7.33-11.82l-4.35,1.55c-.67.24-.38,1.32.3,1.08l5.33-1.91a.56.56,0,0,0,.38-.68q-.67-2.78-1.37-5.53c-.17-.7-1.24-.4-1.07.29l1,4.1a14.3,14.3,0,1,0-1.83,26.57c6-1.74,9.9-7.55,10-13.65C262.15,167.27,261,167.28,261,168Z" transform="translate(-123.34 -147.12)"/><path class="cls-35" d="M176.32,320.87c0,1.18-4.88,2.14-10.91,2.14s-10.91-1-10.91-2.14,4.88-2.14,10.91-2.14S176.32,319.69,176.32,320.87Z" transform="translate(-123.34 -147.12)"/><path class="cls-38" d="M156,321.94a33.53,33.53,0,0,0,9.44,1.07,33.53,33.53,0,0,0,9.44-1.07,33.53,33.53,0,0,0-9.44-1.07A33.53,33.53,0,0,0,156,321.94Z" transform="translate(-123.34 -147.12)"/><polygon class="cls-2" points="156.6 14.32 154.81 8.26 153.02 14.32 147.49 16.22 153.02 18.12 154.81 24.17 156.6 18.12 162.13 16.22 156.6 14.32"/><polygon class="cls-14" points="165.41 81.08 164.2 76.97 162.99 81.08 159.24 82.37 162.99 83.66 164.2 87.76 165.41 83.66 169.16 82.37 165.41 81.08"/><polygon class="cls-14" points="184.11 75.25 183.48 73.11 182.85 75.25 180.89 75.92 182.85 76.59 183.48 78.74 184.11 76.59 186.07 75.92 184.11 75.25"/><polygon class="cls-2" points="222.81 104.39 221.57 100.19 220.33 104.39 216.49 105.7 220.33 107.02 221.57 111.22 222.81 107.02 226.65 105.7 222.81 104.39"/><polygon class="cls-14" points="196.78 121.7 195.37 116.95 193.97 121.7 189.63 123.19 193.97 124.69 195.37 129.43 196.78 124.69 201.12 123.19 196.78 121.7"/><polygon class="cls-14" points="164.83 117.83 164.2 115.69 163.57 117.83 161.61 118.51 163.57 119.18 164.2 121.32 164.83 119.18 166.79 118.51 164.83 117.83"/><polygon class="cls-2" points="208.77 45.27 208.06 42.86 207.35 45.27 205.15 46.02 207.35 46.78 208.06 49.18 208.77 46.78 210.96 46.02 208.77 45.27"/><polygon class="cls-2" points="72.41 2.4 71.7 0 70.98 2.4 68.79 3.16 70.98 3.91 71.7 6.32 72.41 3.91 74.6 3.16 72.41 2.4"/><polygon class="cls-2" points="187.01 6.15 185.77 1.95 184.53 6.15 180.69 7.47 184.53 8.79 185.77 12.99 187.01 8.79 190.84 7.47 187.01 6.15"/><polygon class="cls-2" points="95.99 14.73 94.75 10.53 93.51 14.73 89.67 16.05 93.51 17.37 94.75 21.57 95.99 17.37 99.82 16.05 95.99 14.73"/><polygon class="cls-2" points="38.89 20.81 38.18 18.41 37.47 20.81 35.27 21.57 37.47 22.32 38.18 24.72 38.89 22.32 41.09 21.57 38.89 20.81"/><polygon class="cls-2" points="15.87 68.69 14.08 62.64 12.29 68.69 6.76 70.6 12.29 72.5 14.08 78.55 15.87 72.5 21.4 70.6 15.87 68.69"/><polygon class="cls-14" points="84.64 59.77 82.69 53.16 80.74 59.77 74.7 61.85 80.74 63.92 82.69 70.53 84.64 63.92 90.68 61.85 84.64 59.77"/><polygon class="cls-14" points="32.37 98.64 31.16 94.53 29.95 98.64 26.19 99.93 29.95 101.22 31.16 105.32 32.37 101.22 36.12 99.93 32.37 98.64"/><polygon class="cls-14" points="78.43 117.83 77.8 115.69 77.16 117.83 75.21 118.51 77.16 119.18 77.8 121.32 78.43 119.18 80.39 118.51 78.43 117.83"/><polygon class="cls-14" points="62.93 146.52 61.71 142.41 60.5 146.52 56.75 147.81 60.5 149.1 61.71 153.2 62.93 149.1 66.68 147.81 62.93 146.52"/><polygon class="cls-2" points="6.32 138.8 5.08 134.61 3.84 138.8 0 140.12 3.84 141.44 5.08 145.64 6.32 141.44 10.15 140.12 6.32 138.8"/><polygon class="cls-2" points="10.89 157.31 10.18 154.91 9.47 157.31 7.27 158.07 9.47 158.82 10.18 161.22 10.89 158.82 13.08 158.07 10.89 157.31"/><polygon class="cls-2" points="240.96 151.88 239.72 147.68 238.48 151.88 234.65 153.2 238.48 154.52 239.72 158.72 240.96 154.52 244.8 153.2 240.96 151.88"/></g></svg>