<?xml version="1.0" encoding="utf-8"?>
<!-- Generator: Adobe Illustrator 22.1.0, SVG Export Plug-In . SVG Version: 6.00 Build 0)  -->
<svg version="1.1" id="Layer_1" xmlns="http://www.w3.org/2000/svg" xmlns:xlink="http://www.w3.org/1999/xlink" x="0px" y="0px"
	 viewBox="0 0 5669.3 5669.3" style="enable-background:new 0 0 5669.3 5669.3;" xml:space="preserve">
<style type="text/css">
	.st0{fill:#E3EDFC;}
	.st1{fill:#814C4A;}
	.st2{opacity:0.2;}
	.st3{fill:#B76A6A;}
	.st4{fill:#FFAE8A;}
	.st5{fill:#F79B77;}
	.st6{opacity:0.5;fill:#FFBCA1;}
	.st7{fill:#FAC849;}
	.st8{fill:#F9B212;}
	.st9{fill:#AA6868;}
	.st10{fill:#111B24;}
	.st11{fill:#F4472A;}
	.st12{fill:#FFFFFF;}
	.st13{fill:#F89675;}
	.st14{opacity:0.1;}
	.st15{fill:#F4B425;}
	.st16{fill:#F4885D;}
	.st17{fill:#5D93F4;}
	.st18{opacity:0.5;fill:#1A65D3;}
	.st19{fill:#1A65D3;}
	.st20{opacity:0.5;fill:#0952AA;}
	.st21{opacity:0.2;fill:#814C4A;}
	.st22{opacity:0.2;fill:#FFFFFF;}
	.st23{fill:#2D80E2;}
	.st24{fill:#184A7C;}
	.st25{fill:#1D5393;}
	.st26{opacity:0.6;fill:#114068;}
	.st27{fill:#A9D0FF;}
	.st28{opacity:0.1;fill:#114068;}
	.st29{clip-path:url(#SVGID_2_);}
	.st30{opacity:0.5;}
	.st31{fill:#FC8B3F;}
	.st32{font-family:'Montserrat-ExtraBold';}
	.st33{font-size:10.8987px;}
	.st34{fill:#B6CDEF;}
	.st35{font-size:10.765px;}
	.st36{fill:#F46C0F;}
	.st37{fill:#AF622E;}
	.st38{clip-path:url(#SVGID_4_);}
	.st39{font-size:84.6788px;}
	.st40{font-size:83.6399px;}
</style>
<g>
	<g>
		<path class="st0" d="M2990.4,2977.3h-320.2l-0.3-0.3c-0.1-0.2-14.5-17.7,0-38.6c14.4-20.8,17.3-29.1,9.6-47.7
			c-1.3-3.2-3-6.7-4.8-10.5c-9-18.7-20.2-41.9,0.3-59.8c1.6-1.4,3.2-2.8,4.8-4.2c21-18.2,34.9-30.2,40.2-51.7
			c2.2-8.8,6.9-21.3,17.2-31.3c9.7-9.4,21.8-14.2,36-14.2c11.1,0,23.4,3,36.5,8.8c38.8,17.3,52.5,22.3,68.5,22.3
			c5.3,0,11-0.5,18.5-1.3c3-0.3,6-0.5,9.1-0.5c19.5,0,36.5,6,46.5,16.4c7.9,8.3,11.7,19.2,11.1,32.3c-0.3,7.9-0.9,14.7-1.4,20.6
			c-1.9,24.1-2.7,33.1,15.3,48.7c26.1,22.5,43.3,63.3,13.3,110.4L2990.4,2977.3z M2671,2975.6h318.4c29-45.9,12.2-85.7-13.2-107.7
			c-18.7-16.1-17.9-26.1-15.9-50.1c0.5-5.9,1-12.6,1.4-20.5c0.5-12.7-3-23.1-10.6-31.1c-9.7-10.1-26.2-15.9-45.2-15.9
			c-3,0-6,0.1-8.9,0.4c-7.5,0.8-13.2,1.3-18.7,1.3c-16.4,0-30.2-5.1-69.2-22.5c-12.9-5.8-24.9-8.7-35.8-8.7
			c-9.5,0-41.3,3.2-51.5,44.2c-5.4,22-19.5,34.1-40.7,52.6c-1.6,1.3-3.2,2.7-4.8,4.2c-19.6,17-8.7,39.6,0.1,57.8
			c1.8,3.7,3.5,7.3,4.9,10.6c8.4,20.3,4.2,29.2-9.8,49.3C2658.6,2957.7,2669.2,2973.2,2671,2975.6z"/>
	</g>
	<path class="st0" d="M2676.8,2976.5c0,0-13.7-16.3,0-36.1c13.7-19.8,17-28,9.3-46.7c-7.7-18.7-27.7-46.5-4.5-66.7
		c23.2-20.2,38-31.7,43.5-54.1c7.2-29.3,33.4-57.8,85.1-34.8c51.7,23.1,56.7,23.1,84.1,20.3c27.5-2.7,64.8,7.2,63.2,45.6
		c-1.6,38.5-8.2,48.3,13.7,67.3c22,19,42.9,57.7,12.6,105.1H2676.8z"/>
</g>
<g>
	<g>
		<path class="st1" d="M2797,2807.6c0,0-13.2,81.7,37.3,81.7c50.5,0,38.7-84.9,38.7-84.9l-74.5,3.2"/>
		<g class="st2">
			<g>
				<path class="st3" d="M2801.8,2819.1c0,0,0,0.9,0,2.4c0,1.6,0,3.8,0.1,6.4c0.1,2.7,0.3,5.7,0.6,9c0.1,1.6,0.4,3.3,0.6,5.1
					c0.2,1.7,0.5,3.5,0.8,5.2c0.3,1.7,0.7,3.4,1.1,5.1c0.2,0.8,0.4,1.7,0.6,2.5c0.2,0.8,0.5,1.6,0.7,2.4c0.3,0.8,0.5,1.5,0.8,2.3
					c0.3,0.7,0.6,1.5,0.8,2.2c0.3,0.7,0.6,1.4,0.9,2c0.3,0.6,0.6,1.2,0.9,1.8c0.6,1.1,1.2,2.2,1.8,3.1c0.5,0.9,1.2,1.6,1.6,2.3
					c1,1.2,1.5,1.9,1.5,1.9s-0.2-0.1-0.5-0.4c-0.3-0.3-0.8-0.7-1.3-1.2c-0.5-0.6-1.2-1.2-1.9-2.1c-0.3-0.4-0.7-0.9-1.1-1.4
					c-0.3-0.5-0.7-1-1.1-1.6c-0.3-0.6-0.7-1.2-1.1-1.8c-0.4-0.6-0.7-1.3-1-2c-0.3-0.7-0.7-1.4-1-2.2c-0.3-0.7-0.6-1.5-0.9-2.3
					c-0.6-1.6-1.1-3.2-1.5-5c-0.4-1.7-0.8-3.5-1.2-5.2c-0.3-1.8-0.6-3.5-0.8-5.3c-0.2-1.7-0.3-3.5-0.4-5.1c-0.1-1.7-0.1-3.3-0.1-4.8
					c0-1.5,0-3,0.1-4.3c0.1-2.7,0.4-4.9,0.5-6.4C2801.7,2820,2801.8,2819.1,2801.8,2819.1z"/>
				<path class="st3" d="M2808.1,2819.1c0,0,0.1,0.8,0.1,2.3c0.1,0.7,0.1,1.6,0.2,2.6c0.1,1,0.2,2.1,0.3,3.4c0.1,1.2,0.2,2.6,0.4,4
					c0.1,1.4,0.3,2.9,0.5,4.4c0.2,1.5,0.4,3.1,0.6,4.7c0.2,1.6,0.5,3.2,0.8,4.8c0.3,1.6,0.6,3.2,0.9,4.8c0.4,1.6,0.7,3.1,1.1,4.6
					c0.4,1.5,0.8,2.9,1.2,4.3c0.4,1.3,0.8,2.6,1.2,3.8c0.4,1.1,0.9,2.2,1.2,3.1c0.1,0.2,0.2,0.5,0.3,0.7c0.1,0.2,0.2,0.4,0.3,0.6
					c0.2,0.4,0.4,0.8,0.5,1.1c0.6,1.3,0.9,2.1,0.9,2.1s-0.5-0.7-1.2-1.9c-0.2-0.3-0.4-0.6-0.7-1c-0.1-0.2-0.2-0.4-0.4-0.6
					c-0.1-0.2-0.2-0.4-0.3-0.7c-0.5-0.9-1-1.9-1.5-3c-0.5-1.1-1-2.4-1.5-3.7c-0.5-1.3-0.9-2.8-1.4-4.3c-0.4-1.5-0.8-3.1-1.2-4.7
					c-0.3-1.6-0.7-3.2-1-4.9c-0.2-1.6-0.5-3.3-0.7-4.9c-0.2-1.6-0.4-3.2-0.5-4.8c-0.1-1.5-0.2-3.1-0.3-4.5c-0.1-1.4-0.1-2.8-0.1-4
					C2807.7,2822.4,2808.1,2819.1,2808.1,2819.1z"/>
				<path class="st3" d="M2817.6,2821.4c0,0,0.2,3.1,0.4,7.7c0.1,2.3,0.3,5,0.5,7.8c0.1,1.4,0.2,2.9,0.3,4.4c0.1,1.5,0.2,3,0.4,4.6
					c0.1,1.5,0.3,3,0.4,4.5c0.2,1.5,0.3,3,0.5,4.4c0.2,1.4,0.4,2.8,0.6,4.1c0.2,1.3,0.5,2.5,0.7,3.6c0.3,1.1,0.5,2.1,0.8,3
					c0.3,0.9,0.5,1.7,0.8,2.3c0.2,0.6,0.4,1.1,0.6,1.4c0.1,0.3,0.2,0.5,0.2,0.5s-0.1-0.2-0.3-0.5c-0.2-0.3-0.5-0.7-0.8-1.3
					c-0.3-0.6-0.7-1.3-1.1-2.2c-0.2-0.4-0.4-0.9-0.6-1.4c-0.2-0.5-0.4-1-0.5-1.6c-0.2-0.6-0.3-1.1-0.5-1.7c-0.2-0.6-0.3-1.2-0.5-1.9
					c-0.3-1.3-0.6-2.7-0.8-4.1c-0.2-1.4-0.5-2.9-0.7-4.4c-0.2-1.5-0.4-3-0.5-4.6c-0.1-1.5-0.2-3.1-0.3-4.6c-0.1-1.5-0.1-3-0.1-4.5
					c-0.1-2.9,0-5.6,0.1-7.9C2817.2,2824.5,2817.6,2821.4,2817.6,2821.4z"/>
			</g>
			<g>
				<path class="st3" d="M2866.7,2819.1c0,0,0,0.9,0,2.4c0,1.6,0,3.8-0.1,6.4c-0.1,2.7-0.3,5.7-0.6,9c-0.1,1.6-0.4,3.3-0.6,5.1
					c-0.2,1.7-0.5,3.5-0.8,5.2c-0.3,1.7-0.7,3.4-1.1,5.1c-0.2,0.8-0.4,1.7-0.6,2.5c-0.2,0.8-0.5,1.6-0.7,2.4
					c-0.3,0.8-0.5,1.5-0.8,2.3c-0.3,0.7-0.6,1.5-0.8,2.2c-0.3,0.7-0.6,1.4-0.9,2c-0.3,0.6-0.6,1.2-0.9,1.8c-0.6,1.1-1.2,2.2-1.8,3.1
					c-0.5,0.9-1.2,1.6-1.6,2.3c-1,1.2-1.5,1.9-1.5,1.9s0.2-0.1,0.5-0.4c0.3-0.3,0.8-0.7,1.3-1.2c0.5-0.6,1.2-1.2,1.9-2.1
					c0.3-0.4,0.7-0.9,1.1-1.4c0.3-0.5,0.7-1,1.1-1.6c0.3-0.6,0.7-1.2,1.1-1.8c0.4-0.6,0.7-1.3,1-2c0.3-0.7,0.7-1.4,1-2.2
					c0.3-0.7,0.6-1.5,0.9-2.3c0.6-1.6,1.1-3.2,1.5-5c0.4-1.7,0.8-3.5,1.2-5.2c0.3-1.8,0.6-3.5,0.8-5.3c0.2-1.7,0.3-3.5,0.4-5.1
					c0.1-1.7,0.1-3.3,0.1-4.8c0-1.5,0-3-0.1-4.3c-0.1-2.7-0.4-4.9-0.5-6.4C2866.9,2820,2866.7,2819.1,2866.7,2819.1z"/>
				<path class="st3" d="M2860.5,2819.1c0,0-0.1,0.8-0.1,2.3c-0.1,0.7-0.1,1.6-0.2,2.6c-0.1,1-0.2,2.1-0.3,3.4
					c-0.1,1.2-0.2,2.6-0.4,4c-0.1,1.4-0.3,2.9-0.5,4.4c-0.2,1.5-0.4,3.1-0.6,4.7c-0.2,1.6-0.5,3.2-0.8,4.8c-0.3,1.6-0.6,3.2-0.9,4.8
					c-0.4,1.6-0.7,3.1-1.1,4.6c-0.4,1.5-0.8,2.9-1.2,4.3c-0.4,1.3-0.8,2.6-1.2,3.8c-0.4,1.1-0.9,2.2-1.2,3.1
					c-0.1,0.2-0.2,0.5-0.3,0.7c-0.1,0.2-0.2,0.4-0.3,0.6c-0.2,0.4-0.4,0.8-0.5,1.1c-0.6,1.3-0.9,2.1-0.9,2.1s0.5-0.7,1.2-1.9
					c0.2-0.3,0.4-0.6,0.7-1c0.1-0.2,0.2-0.4,0.4-0.6c0.1-0.2,0.2-0.4,0.3-0.7c0.5-0.9,1-1.9,1.5-3c0.5-1.1,1-2.4,1.5-3.7
					c0.5-1.3,0.9-2.8,1.4-4.3c0.4-1.5,0.8-3.1,1.2-4.7c0.3-1.6,0.7-3.2,1-4.9c0.2-1.6,0.5-3.3,0.7-4.9c0.2-1.6,0.4-3.2,0.5-4.8
					c0.1-1.5,0.2-3.1,0.3-4.5c0.1-1.4,0.1-2.8,0.1-4C2860.9,2822.4,2860.5,2819.1,2860.5,2819.1z"/>
				<path class="st3" d="M2850.9,2821.4c0,0-0.2,3.1-0.4,7.7c-0.1,2.3-0.3,5-0.5,7.8c-0.1,1.4-0.2,2.9-0.3,4.4
					c-0.1,1.5-0.2,3-0.4,4.6c-0.1,1.5-0.3,3-0.4,4.5c-0.2,1.5-0.3,3-0.5,4.4c-0.2,1.4-0.4,2.8-0.6,4.1c-0.2,1.3-0.5,2.5-0.7,3.6
					c-0.3,1.1-0.5,2.1-0.8,3c-0.3,0.9-0.5,1.7-0.8,2.3c-0.2,0.6-0.4,1.1-0.6,1.4c-0.1,0.3-0.2,0.5-0.2,0.5s0.1-0.2,0.3-0.5
					c0.2-0.3,0.5-0.7,0.8-1.3c0.3-0.6,0.7-1.3,1.1-2.2c0.2-0.4,0.4-0.9,0.6-1.4c0.2-0.5,0.4-1,0.5-1.6c0.2-0.6,0.3-1.1,0.5-1.7
					c0.2-0.6,0.3-1.2,0.5-1.9c0.3-1.3,0.6-2.7,0.8-4.1c0.2-1.4,0.5-2.9,0.7-4.4c0.2-1.5,0.4-3,0.5-4.6c0.1-1.5,0.2-3.1,0.3-4.6
					c0.1-1.5,0.1-3,0.1-4.5c0.1-2.9,0-5.6-0.1-7.9C2851.3,2824.5,2850.9,2821.4,2850.9,2821.4z"/>
			</g>
		</g>
	</g>
	<g>
		<g>
			<g>
				<g>
					<g>
						<g>
							<polygon class="st4" points="2843,2836.4 2834.3,2836.4 2825.5,2836.4 2818,2866.8 2834.3,2889.3 2850.5,2864.9 							"/>
						</g>
						<path class="st5" d="M2843,2836.4h-8.8h-8.8l-1.8,7.4c5.2,5.2,15.9,8.7,22.6,4.9L2843,2836.4z"/>
					</g>
					<g>
						<g>
							<g>
								<path class="st4" d="M2803.2,2806.5c0,0-5.3-8.5-8.4-4.4c-3.2,4,1.9,13.8,8.4,12.1V2806.5z"/>
								<path class="st4" d="M2865.3,2806.5c0,0,5.3-8.5,8.4-4.4c3.2,4-1.9,13.8-8.4,12.1V2806.5z"/>
							</g>
							<g>
								<path class="st4" d="M2834.4,2760.4c-35.8,0-33,45.8-32.3,57c0.7,11.2,7.6,15,16.5,22c9,7,15.8,6.3,15.8,6.3
									s6.9,0.7,15.8-6.3c9-7,15.8-10.9,16.5-22C2867.4,2806.2,2870.2,2760.4,2834.4,2760.4z"/>
								<path class="st6" d="M2866.9,2801c0.2,6-0.1,11.1-0.3,14c-0.7,11.2-7.5,15-16.5,22c-9,7-15.8,6.3-15.8,6.3
									s-6.9,0.7-15.8-6.3c-9-7-15.8-10.9-16.5-22c0-0.6-0.1-1.2-0.1-2c0.1,1.8,0.2,3.3,0.2,4.4c0.7,11.2,7.6,15,16.5,22
									c9,7,15.8,6.3,15.8,6.3s6.9,0.7,15.8-6.3c9-7,15.8-10.9,16.5-22C2866.9,2814.1,2867.3,2808,2866.9,2801z"/>
							</g>
						</g>
					</g>
					<g>
						<path class="st7" d="M2879.7,2860.2l-32.4-7.5c0,10.1-11.4,10.1-12.3,9.9v0c0,0,0,0,0,0c0,0,0,0,0,0v0
							c-0.9,0.2-13.4,0.2-13.4-9.9l-31.3,7.5l6.7,30.9c0,0-8.6,18.8,6.4,32.1l2.7,45.9h28.9h0.1h29.8l1.8-45.9
							c15-13.3,6.4-32.1,6.4-32.1L2879.7,2860.2z"/>
						<path class="st8" d="M2834.9,2865.8L2834.9,2865.8C2834.9,2865.8,2834.9,2865.8,2834.9,2865.8
							C2835,2865.8,2835,2865.8,2834.9,2865.8L2834.9,2865.8c1.2,0.2,15.5,0.3,15.6-12.3l-3.2-0.7c0,10.1-11.4,10.1-12.3,9.9v0
							c0,0,0,0,0,0c0,0,0,0,0,0v0c-0.9,0.2-13.4,0.2-13.4-9.9l-3.5,0.8C2818.2,2866,2833.7,2866,2834.9,2865.8z"/>
					</g>
					<g>
						<g>
							<g>
								<path class="st9" d="M2843.4,2801.8c0,0-0.2-2.6,0.7-3.1c0.9-0.5,8.8-0.8,11.7,0c2.9,0.8,4.1,4.4,4.1,4.4s-1-1.5-5.5-2
									C2851.1,2800.8,2844.5,2802.3,2843.4,2801.8z"/>
								<path class="st9" d="M2825.3,2801.8c0,0,0.2-2.6-0.7-3.1c-0.9-0.5-8.8-0.8-11.7,0c-2.9,0.8-4.1,4.4-4.1,4.4s1-1.5,5.5-2
									C2817.7,2800.8,2824.2,2802.3,2825.3,2801.8z"/>
							</g>
							<g>
								<path class="st10" d="M2853.8,2810.6c0,1.9-1,3.5-2.3,3.5c-1.3,0-2.3-1.5-2.3-3.5c0-1.9,1-3.5,2.3-3.5
									C2852.7,2807.1,2853.8,2808.7,2853.8,2810.6z"/>
								<path class="st10" d="M2820.2,2810.6c0,1.9-1,3.5-2.3,3.5c-1.3,0-2.3-1.5-2.3-3.5c0-1.9,1-3.5,2.3-3.5
									C2819.1,2807.1,2820.2,2808.7,2820.2,2810.6z"/>
							</g>
						</g>
						<g>
							<path class="st11" d="M2824,2828.4c0,0,3.1,7.2,10.4,7.2c7.3,0,10.3-7.2,10.3-7.2S2836.2,2832.2,2824,2828.4z"/>
							<path class="st12" d="M2824,2828.4c0,0,5,4.1,10.5,4.1c5.4,0,10.1-4.1,10.1-4.1S2836.1,2833.2,2824,2828.4z"/>
							<g>
								<g>
									<path class="st11" d="M2845,2828.2c0,0-7.2-0.4-8.6,0c-1.4,0.4-1.4,0.5-1.9,0.5c-0.5,0-0.5,0-1.9-0.5c-1.4-0.4-8.6,0-8.6,0
										C2832.5,2832.4,2843.4,2829.7,2845,2828.2z"/>
								</g>
								<g>
									<path class="st11" d="M2822.3,2827.6c7.2,3.7,17,4,24.1,0c0.2-0.1,0-0.3-0.2-0.2c-7,3.9-16.7,3.7-23.8,0
										C2822.3,2827.3,2822.2,2827.5,2822.3,2827.6L2822.3,2827.6z"/>
								</g>
							</g>
						</g>
						<path class="st13" d="M2830.6,2821.4c0,0,0.5,0.2,1.3,0.4c0.4,0.1,0.8,0.2,1.2,0.3c0.2,0.1,0.4,0.1,0.6,0.1
							c0.2,0,0.4,0.1,0.6,0c0.2,0,0.4,0,0.6,0c0.2,0,0.4-0.1,0.6-0.1c0.2,0,0.4-0.1,0.6-0.2c0.2,0,0.4-0.1,0.6-0.2
							c0.2-0.1,0.4-0.1,0.5-0.2c0.1-0.1,0.3-0.1,0.4-0.2c0.2-0.1,0.4-0.1,0.4-0.1s0,0.1-0.1,0.4c-0.1,0.2-0.2,0.6-0.6,0.9
							c-0.2,0.2-0.3,0.4-0.5,0.5c-0.2,0.2-0.4,0.3-0.7,0.5c-0.3,0.1-0.6,0.3-0.9,0.3c-0.3,0.1-0.6,0.1-1,0.1c-0.3,0-0.6-0.1-0.9-0.1
							c-0.3-0.1-0.6-0.2-0.8-0.3c-0.5-0.3-0.9-0.6-1.2-0.9C2830.8,2822,2830.6,2821.4,2830.6,2821.4z"/>
					</g>
					<g class="st14">
						<path class="st11" d="M2818.7,2820.1c0,3.2-2.9,5.7-6.5,5.7c-3.6,0-6.5-2.6-6.5-5.7c0-3.2,2.9-5.7,6.5-5.7
							C2815.8,2814.3,2818.7,2816.9,2818.7,2820.1z"/>
						<path class="st11" d="M2863.9,2820.1c0,3.2-2.9,5.7-6.5,5.7s-6.5-2.6-6.5-5.7c0-3.2,2.9-5.7,6.5-5.7
							S2863.9,2816.9,2863.9,2820.1z"/>
					</g>
				</g>
				<path class="st15" d="M2879.5,2860.2c0,0,11.6,4,17.1,17.2c5.5,13.2,19.1,52.9,16.9,61.8c-2.4,9.5-48.3,27.8-48.3,27.8l-6.9-12
					c0,0,28.4-19.9,33.1-23.7l-18.5-40.2L2879.5,2860.2z"/>
				<path class="st15" d="M2790.3,2860.2c0,0-11.6,4-17.1,17.2c-5.5,13.2-19.1,52.9-16.9,61.8c2.4,9.5,48.3,27.8,48.3,27.8l6.9-12
					c0,0-28.4-19.9-33.1-23.7l18.5-40.2L2790.3,2860.2z"/>
				<path class="st15" d="M2850.3,2922.6c-6.3-1.9-12.2-3.6-15.4-3.6v0v0c-3.2,0-9.2,1.6-15.4,3.6c-6.3,1.9-10.7,0.9-10.7,0.9
					c4.4,2.8,10.6,3.1,16.7,0.9c5.4-2,9.5-1.9,9.5-1.9v0v0c0,0,4,0.1,9.4,1.9c6.2,2.1,12.3,1.9,16.7-0.9
					C2861.1,2923.5,2856.6,2924.6,2850.3,2922.6z"/>
				<g>
					<path class="st16" d="M2873.7,2803.7c-1.3-1.2-2.4-1.1-3.3-0.3c-0.1,0.1-0.2,0.1-0.2,0.2c-1.6,1.6-2.4,5.1-2.7,6.8
						c-0.1,0.7,0.9,1,1,0.3c0.2-1.1,0.9-4.5,2.1-6c0.7,1.3,0.8,2.8,0,4.2c-0.4,0.6,0.6,1.1,0.9,0.5c1-1.7,0.9-3.7,0-5.4
						c0.4-0.2,1-0.1,1.5,0.4C2873.4,2804.9,2874.2,2804.2,2873.7,2803.7z"/>
					<path class="st16" d="M2795.5,2803.7c1.3-1.2,2.4-1.1,3.3-0.3c0.1,0.1,0.2,0.1,0.2,0.2c1.6,1.6,2.4,5.1,2.7,6.8
						c0.1,0.7-0.9,1-1,0.3c-0.2-1.1-0.9-4.5-2.1-6c-0.7,1.3-0.8,2.8,0,4.2c0.4,0.6-0.6,1.1-0.9,0.5c-1-1.7-0.9-3.7,0-5.4
						c-0.4-0.2-1-0.1-1.5,0.4C2795.7,2804.9,2794.9,2804.2,2795.5,2803.7z"/>
				</g>
			</g>
			<path class="st4" d="M2859.9,2957.7c0,0-10-0.1-11.6,1.3c-1.6,1.4-6.4,10.3-5.6,11.1c0.7,0.9,12-1.2,14.9-2.3
				c2.9-1.2,6.7-2.5,6.7-2.5L2859.9,2957.7z"/>
			<path class="st4" d="M2809.5,2957.7c0,0,10-0.1,11.6,1.3c1.6,1.4,6.4,10.3,5.6,11.1c-0.7,0.9-12-1.2-14.9-2.3
				c-2.9-1.2-6.7-2.5-6.7-2.5L2809.5,2957.7z"/>
		</g>
		<g>
			<path class="st1" d="M2801.7,2804.5c0,0,17.2-8.9,21.9-25.8c0,0,14.1,23.8,43.3,25.8c0,0,2.8-3.9,6-3.1c0,0,2-45.8-38.7-45.8
				c-40.7,0-37.2,45.5-37.2,45.5S2799.3,2801.6,2801.7,2804.5z"/>
			<g class="st2">
				<path class="st3" d="M2829,2771.3c0,0,0.4,0.5,1.1,1.4c0.7,0.9,1.8,2.1,3.2,3.4c0.7,0.7,1.4,1.4,2.2,2.2
					c0.8,0.8,1.7,1.5,2.5,2.4c0.9,0.8,1.8,1.6,2.8,2.4c0.5,0.4,1,0.8,1.5,1.2c0.5,0.4,1,0.7,1.5,1.1c0.5,0.4,1,0.8,1.5,1.1
					c0.5,0.3,1.1,0.7,1.6,1c1,0.7,2.1,1.3,3.1,1.9c1,0.6,2.1,1.1,3,1.6c0.5,0.3,1,0.5,1.4,0.7c0.5,0.2,0.9,0.4,1.4,0.6
					c0.9,0.4,1.7,0.8,2.4,1.1c0.7,0.3,1.4,0.5,1.9,0.7c1.1,0.4,1.7,0.7,1.7,0.7s-0.6-0.1-1.8-0.3c-0.6-0.1-1.2-0.3-2-0.4
					c-0.8-0.2-1.6-0.5-2.6-0.8c-0.5-0.1-1-0.3-1.5-0.5c-0.5-0.2-1-0.4-1.5-0.6c-1-0.4-2.2-0.9-3.2-1.5c-1.1-0.6-2.2-1.1-3.3-1.8
					c-0.5-0.3-1.1-0.7-1.7-1c-0.6-0.4-1.1-0.8-1.6-1.1c-0.5-0.4-1.1-0.8-1.6-1.2c-0.5-0.4-1-0.8-1.5-1.2c-0.5-0.4-1-0.8-1.4-1.3
					c-0.5-0.4-0.9-0.9-1.4-1.3c-0.9-0.9-1.7-1.7-2.4-2.6c-0.7-0.8-1.4-1.7-2-2.4c-0.6-0.8-1.1-1.5-1.6-2.2c-0.4-0.7-0.8-1.2-1.1-1.7
					C2829.3,2771.9,2829,2771.3,2829,2771.3z"/>
				<path class="st3" d="M2833.2,2765.2c0,0,1.7,1.5,4.3,3.7c0.7,0.5,1.4,1.1,2.1,1.7c0.8,0.6,1.6,1.2,2.4,1.9
					c1.7,1.3,3.4,2.7,5.3,3.9l1.4,1c0.5,0.3,0.9,0.6,1.4,0.9c0.9,0.6,1.8,1.2,2.7,1.8c0.9,0.6,1.8,1.1,2.6,1.6
					c0.8,0.5,1.6,1,2.4,1.4c0.7,0.4,1.4,0.8,2,1.1c0.6,0.3,1.1,0.6,1.6,0.8c0.9,0.5,1.4,0.8,1.4,0.8s-0.5-0.1-1.5-0.4
					c-0.5-0.1-1.1-0.3-1.7-0.5c-0.7-0.2-1.4-0.5-2.2-0.8c-0.4-0.2-0.8-0.3-1.2-0.5c-0.4-0.2-0.9-0.4-1.3-0.6
					c-0.9-0.4-1.8-0.9-2.8-1.4c-0.9-0.5-1.9-1.1-2.9-1.7c-0.5-0.3-1-0.6-1.4-0.9l-1.4-1c-0.9-0.7-1.8-1.4-2.7-2.1
					c-0.9-0.7-1.7-1.4-2.5-2.1c-1.6-1.4-3-2.8-4.2-4.1c-1.2-1.3-2.1-2.4-2.7-3.2C2833.5,2765.7,2833.2,2765.2,2833.2,2765.2z"/>
				<path class="st3" d="M2835.8,2760.6c0,0,2.3,0.1,5.6,0.9c0.8,0.2,1.7,0.4,2.6,0.7c0.5,0.1,0.9,0.3,1.4,0.5
					c0.5,0.2,1,0.4,1.5,0.6c1,0.4,2,0.9,3,1.3c1,0.5,2,1.1,3,1.7l1.4,1l0.7,0.5l0.7,0.5c0.9,0.7,1.8,1.4,2.5,2.2
					c0.4,0.4,0.8,0.7,1.1,1.1c0.4,0.4,0.7,0.8,1,1.2c0.6,0.8,1.2,1.5,1.6,2.2c0.4,0.7,0.8,1.4,1.2,2c0.3,0.6,0.5,1.2,0.7,1.7
					c0.4,0.9,0.6,1.4,0.6,1.4s-0.3-0.5-0.9-1.3c-0.3-0.4-0.6-0.9-0.9-1.5c-0.4-0.5-0.9-1.1-1.4-1.8c-0.5-0.7-1.2-1.3-1.8-2
					c-0.6-0.7-1.4-1.3-2.1-2c-0.7-0.7-1.6-1.3-2.5-2l-0.6-0.5l-0.7-0.4l-1.4-0.9c-0.9-0.6-1.9-1.1-2.8-1.6c-1-0.5-1.9-1-2.8-1.4
					c-0.5-0.2-0.9-0.4-1.4-0.6c-0.5-0.2-0.9-0.4-1.3-0.6c-0.9-0.4-1.7-0.7-2.5-1c-1.6-0.6-2.9-1-3.8-1.3
					C2836.3,2760.7,2835.8,2760.6,2835.8,2760.6z"/>
				<path class="st3" d="M2821.6,2771.3c0,0-0.1,0.5-0.3,1.4c-0.2,0.9-0.6,2.1-1.2,3.6c-0.6,1.5-1.4,3.1-2.3,4.8
					c-0.5,0.8-1,1.7-1.5,2.6c-0.6,0.9-1.1,1.7-1.8,2.6c-0.3,0.4-0.6,0.8-0.9,1.2c-0.3,0.4-0.7,0.8-1,1.2c-0.6,0.8-1.4,1.5-2,2.2
					c-0.7,0.7-1.4,1.3-2.1,1.9c-0.3,0.3-0.7,0.6-1,0.9c-0.3,0.3-0.7,0.5-1,0.7c-0.6,0.5-1.2,0.9-1.7,1.3c-0.5,0.3-1,0.6-1.4,0.9
					c-0.8,0.5-1.2,0.7-1.2,0.7s0.4-0.4,1-1c0.3-0.3,0.7-0.7,1.2-1.1c0.4-0.4,0.9-0.9,1.5-1.5c0.3-0.3,0.6-0.6,0.8-0.8
					c0.3-0.3,0.6-0.6,0.9-0.9c0.6-0.6,1.2-1.3,1.8-2.1c0.6-0.7,1.3-1.5,1.9-2.3c0.3-0.4,0.6-0.8,0.9-1.2l0.9-1.2
					c0.6-0.8,1.2-1.6,1.8-2.5c0.6-0.8,1.1-1.7,1.6-2.4c0.5-0.8,1-1.6,1.5-2.3c0.4-0.8,0.9-1.5,1.3-2.1
					C2820.7,2773.1,2821.6,2771.3,2821.6,2771.3z"/>
				<path class="st3" d="M2825.4,2762.2c0,0-0.1,0-0.4,0.1c-0.2,0.1-0.6,0.2-1,0.4c-0.4,0.2-0.9,0.4-1.5,0.7c-0.6,0.3-1.2,0.6-1.9,1
					c-0.3,0.2-0.7,0.4-1,0.6c-0.3,0.2-0.7,0.4-1.1,0.7c-0.4,0.3-0.7,0.5-1.1,0.8c-0.4,0.3-0.7,0.6-1.1,0.9c-0.8,0.6-1.4,1.3-2.2,2
					c-0.7,0.7-1.4,1.5-2,2.2c-0.6,0.8-1.3,1.6-1.8,2.4c-0.5,0.9-1.1,1.6-1.6,2.5c-0.5,0.8-0.9,1.7-1.4,2.4c-0.4,0.8-0.7,1.6-1.1,2.3
					c-0.2,0.4-0.3,0.7-0.5,1c-0.1,0.3-0.3,0.6-0.4,0.9c-0.2,0.6-0.5,1.1-0.6,1.5c-0.4,0.8-0.6,1.3-0.6,1.3s0.1-0.5,0.3-1.4
					c0.1-0.5,0.2-1,0.3-1.6c0.1-0.3,0.1-0.7,0.2-1c0.1-0.3,0.2-0.7,0.3-1.1c0.2-0.8,0.5-1.6,0.8-2.4c0.4-0.8,0.8-1.7,1.2-2.6
					c0.2-0.5,0.5-0.9,0.7-1.3c0.3-0.4,0.5-0.9,0.8-1.3c0.6-0.9,1.3-1.7,1.9-2.6c0.7-0.8,1.4-1.6,2.2-2.3c0.8-0.7,1.6-1.4,2.4-2
					c0.4-0.3,0.8-0.6,1.2-0.9c0.4-0.2,0.8-0.5,1.2-0.7c0.8-0.5,1.6-0.8,2.3-1.1c0.8-0.3,1.4-0.5,2.1-0.7c0.6-0.2,1.2-0.3,1.6-0.4
					C2824.8,2762.2,2825.4,2762.2,2825.4,2762.2z"/>
			</g>
		</g>
	</g>
	<g>
		<g>
			<path class="st17" d="M2799.7,2795l-5.2,0c0-0.4,0.7-42.8,40.5-42.8c39.7,0,40.2,42.4,40.2,42.8h-5.2c0-1.5-0.5-37.6-34.9-37.6
				c-14.5,0-24.9,6.3-30.7,18.6C2799.8,2785.4,2799.7,2794.9,2799.7,2795z"/>
		</g>
		<path class="st18" d="M2799.7,2795c0-0.1,0.1-9.6,4.6-19c5.8-12.3,16.2-18.6,30.7-18.6c34.5,0,34.9,36.1,34.9,37.6h2.7
			c-0.2-5.4-3.2-39.5-37.7-39.5c-34.6,0-37.7,34.1-38,39.5L2799.7,2795z"/>
	</g>
	<g>
		<g>
			<g>
				<path class="st17" d="M2869.3,2815.4c-4.8,4.1-9.5,8.1-14.3,12.2c-1.2,1,0.3,2.8,1.5,1.9c4.8-4.1,9.5-8.1,14.3-12.2
					C2871.9,2816.3,2870.4,2814.5,2869.3,2815.4L2869.3,2815.4z"/>
			</g>
			<g>
				<path class="st19" d="M2860.4,2824.9c0.9,1.1,0.7,2.7-0.4,3.6l-4,3.2c-1.1,0.9-2.7,0.7-3.6-0.4l0,0c-0.9-1.1-0.7-2.7,0.4-3.6
					l4-3.2C2858,2823.6,2859.6,2823.8,2860.4,2824.9L2860.4,2824.9z"/>
				<path class="st20" d="M2860.4,2824.9c-0.6-0.8-1.5-1.1-2.4-0.9c0.1,0.1,0.3,0.2,0.4,0.4c0.9,1.1,0.7,2.7-0.4,3.6l-4,3.2
					c-0.3,0.3-0.7,0.4-1.2,0.5c0.9,0.7,2.2,0.8,3.2,0l4-3.2C2861.1,2827.6,2861.3,2826,2860.4,2824.9z"/>
			</g>
		</g>
		<g>
			<g>
				<g>
					<path class="st19" d="M2799.1,2792.3h-2v1c-2,2.1-3.4,7.4-3.4,13.5c0,6.2,1.4,11.4,3.4,13.5v1h2c3,0,5.4-6.5,5.4-14.5
						C2804.5,2798.8,2802,2792.3,2799.1,2792.3z"/>
					<path class="st17" d="M2797.1,2792.3c-0.5,0-0.9,0.2-1.4,0.5c-2,1.1-5.5,4.3-5.5,14c0,8.7,2.8,12.1,4.9,13.4
						c0.6,0.7,1.3,1.1,2,1.1c3,0,5.4-6.5,5.4-14.5C2802.5,2798.8,2800.1,2792.3,2797.1,2792.3z"/>
					<path class="st21" d="M2798.7,2792.9c1.4,2.6,2.3,6.9,2.3,11.8c0,8-2.4,14.5-5.4,14.5c-0.7,0-1.4-0.4-2-1.1
						c-0.4-0.2-0.8-0.6-1.2-0.9c0.9,1.6,1.9,2.5,2.8,3c0.6,0.7,1.3,1.1,2,1.1c3,0,5.4-6.5,5.4-14.5
						C2802.5,2800.2,2800.9,2794.7,2798.7,2792.9z"/>
				</g>
				<path class="st22" d="M2795.2,2796.2c0,0-0.1,0.3-0.2,0.7c-0.1,0.5-0.2,1.1-0.4,1.8c-0.1,0.4-0.1,0.8-0.2,1.2
					c-0.1,0.4-0.1,0.9-0.2,1.3c-0.1,0.5-0.1,0.9-0.2,1.4c-0.1,0.5-0.1,1-0.2,1.5c0,0.5-0.1,1-0.1,1.5c0,0.5-0.1,1-0.1,1.4
					c0,0.5-0.1,0.9-0.1,1.4c0,0.4-0.1,0.9-0.1,1.2c-0.1,0.8-0.1,1.4-0.2,1.9c0,0.5-0.1,0.8-0.1,0.8s-0.1-0.2-0.3-0.7
					c-0.2-0.4-0.4-1.1-0.6-1.8c-0.1-0.4-0.2-0.8-0.3-1.3c-0.1-0.5-0.1-1-0.2-1.5c0-0.5,0-1.1,0-1.6c0-0.5,0.1-1.1,0.1-1.7
					c0.1-0.6,0.1-1.1,0.2-1.6c0.1-0.5,0.2-1.1,0.4-1.5c0.1-0.5,0.3-0.9,0.5-1.4c0.2-0.4,0.4-0.8,0.6-1.1c0.4-0.7,0.8-1.2,1.1-1.5
					C2795,2796.3,2795.2,2796.2,2795.2,2796.2z"/>
			</g>
			<g>
				<g>
					<path class="st19" d="M2869.8,2792.3h2v1c2,2.1,3.4,7.4,3.4,13.5c0,6.2-1.4,11.4-3.4,13.5v1h-2c-3,0-5.4-6.5-5.4-14.5
						C2864.4,2798.8,2866.8,2792.3,2869.8,2792.3z"/>
					<path class="st17" d="M2871.7,2792.3c0.5,0,0.9,0.2,1.4,0.5c2,1.1,5.5,4.3,5.5,14c0,8.7-2.8,12.1-4.9,13.4
						c-0.6,0.7-1.3,1.1-2,1.1c-3,0-5.4-6.5-5.4-14.5C2866.4,2798.8,2868.8,2792.3,2871.7,2792.3z"/>
					<path class="st21" d="M2870.2,2792.9c-1.4,2.6-2.3,6.9-2.3,11.8c0,8,2.4,14.5,5.4,14.5c0.7,0,1.4-0.4,2-1.1
						c0.4-0.2,0.8-0.6,1.2-0.9c-0.9,1.6-1.9,2.5-2.8,3c-0.6,0.7-1.3,1.1-2,1.1c-3,0-5.4-6.5-5.4-14.5
						C2866.4,2800.2,2868,2794.7,2870.2,2792.9z"/>
				</g>
				<path class="st22" d="M2873.6,2796.2c0,0,0.1,0.3,0.2,0.7c0.1,0.5,0.2,1.1,0.4,1.8c0.1,0.4,0.1,0.8,0.2,1.2
					c0.1,0.4,0.1,0.9,0.2,1.3c0.1,0.5,0.1,0.9,0.2,1.4c0.1,0.5,0.1,1,0.2,1.5c0,0.5,0.1,1,0.1,1.5c0,0.5,0.1,1,0.1,1.4
					c0,0.5,0.1,0.9,0.1,1.4c0,0.4,0.1,0.9,0.1,1.2c0.1,0.8,0.1,1.4,0.2,1.9c0,0.5,0.1,0.8,0.1,0.8s0.1-0.2,0.3-0.7
					c0.2-0.4,0.4-1.1,0.6-1.8c0.1-0.4,0.2-0.8,0.3-1.3c0.1-0.5,0.1-1,0.2-1.5c0-0.5,0-1.1,0-1.6c0-0.5-0.1-1.1-0.1-1.7
					c-0.1-0.6-0.1-1.1-0.2-1.6c-0.1-0.5-0.2-1.1-0.4-1.5c-0.1-0.5-0.3-0.9-0.5-1.4c-0.2-0.4-0.4-0.8-0.6-1.1
					c-0.4-0.7-0.8-1.2-1.1-1.5C2873.8,2796.3,2873.6,2796.2,2873.6,2796.2z"/>
			</g>
		</g>
	</g>
</g>
<g>
	<rect x="2680" y="2976.5" class="st17" width="309.8" height="15.2"/>
	<path class="st23" d="M3003.9,2980.6c0,2.3-2,4.1-4.3,4.1h-329.3c-2.4,0-4.3-1.9-4.3-4.1c0-2.3,2-4.1,4.3-4.1h329.3
		C3001.9,2976.5,3003.9,2978.3,3003.9,2980.6z"/>
</g>
<path class="st24" d="M2911.6,2972.8c0,2-1.6,3.7-3.7,3.7h-146c-2,0-3.7-1.6-3.7-3.7l0,0c0-2,1.6-3.7,3.7-3.7h146
	C2909.9,2969.1,2911.6,2970.8,2911.6,2972.8L2911.6,2972.8z"/>
<g>
	<g>
		<path class="st25" d="M2900,2963.4c0,3.8-3.1,6.9-6.9,6.9h-116.3c-3.8,0-6.9-3.1-6.9-6.9v-63.7c0-3.8,3.1-6.9,6.9-6.9H2893
			c3.8,0,6.9,3.1,6.9,6.9V2963.4z"/>
		<path class="st17" d="M2840,2931c0,2.8-2.3,5.1-5.1,5.1c-2.8,0-5.1-2.3-5.1-5.1c0-2.8,2.3-5.1,5.1-5.1
			C2837.7,2925.9,2840,2928.2,2840,2931z"/>
	</g>
	<path class="st26" d="M2893,2892.8h-25c-1.5,47.1-65.6,69.3-94.2,76.9c0.9,0.4,1.9,0.7,3,0.7H2893c3.8,0,6.9-3.1,6.9-6.9v-63.7
		C2900,2895.9,2896.9,2892.8,2893,2892.8z"/>
</g>
<g>
	<g>
		<path class="st17" d="M2739,2747.9h-38.9c-4.7,0-8.5,3.8-8.5,8.5v27.5c0,4.7,3.8,8.5,8.5,8.5h19l10.9,8v-8h9
			c4.7,0,8.5-3.8,8.5-8.5v-27.5C2747.5,2751.8,2743.7,2747.9,2739,2747.9z"/>
		<g>
			<path class="st27" d="M2721,2758.8c0,0.7-0.6,1.3-1.3,1.3h-19.9c-0.7,0-1.3-0.6-1.3-1.3l0,0c0-0.7,0.6-1.3,1.3-1.3h19.9
				C2720.4,2757.5,2721,2758.1,2721,2758.8L2721,2758.8z"/>
			<path class="st27" d="M2742.3,2765.9c0,0.7-0.6,1.3-1.3,1.3h-41.2c-0.7,0-1.3-0.6-1.3-1.3l0,0c0-0.7,0.6-1.3,1.3-1.3h41.2
				C2741.7,2764.6,2742.3,2765.2,2742.3,2765.9L2742.3,2765.9z"/>
			<path class="st27" d="M2742.3,2773c0,0.7-0.6,1.3-1.3,1.3h-41.2c-0.7,0-1.3-0.6-1.3-1.3l0,0c0-0.7,0.6-1.3,1.3-1.3h41.2
				C2741.7,2771.7,2742.3,2772.3,2742.3,2773L2742.3,2773z"/>
			<path class="st27" d="M2735.2,2780.1c0,0.7-0.6,1.3-1.3,1.3h-34.1c-0.7,0-1.3-0.6-1.3-1.3l0,0c0-0.7,0.6-1.3,1.3-1.3h34.1
				C2734.6,2778.8,2735.2,2779.4,2735.2,2780.1L2735.2,2780.1z"/>
		</g>
		<path class="st28" d="M2739,2747.9h-0.7c0.4,23-17.6,37.1-31.4,44.6h12.2l10.9,7.1v-7.1h9c4.7,0,8.5-3.8,8.5-8.5v-27.5
			C2747.5,2751.8,2743.7,2747.9,2739,2747.9z"/>
	</g>
	<g>
		<g>
			<rect x="2692.6" y="2857.4" class="st7" width="38.2" height="23.8"/>
			<polygon class="st15" points="2692.6,2857.4 2730.8,2857.4 2711.7,2874 			"/>
			<g>
				<defs>
					<rect id="SVGID_1_" x="2692.6" y="2857.4" width="38.2" height="23.8"/>
				</defs>
				<clipPath id="SVGID_2_">
					<use xlink:href="#SVGID_1_"  style="overflow:visible;"/>
				</clipPath>
				<g class="st29">
					<g>
						<path class="st15" d="M2693.2,2882c4.3-5.7,8.6-11.5,12.9-17.2c0.8-1-0.5-2.6-1.3-1.5c-4.3,5.7-8.6,11.5-12.9,17.2
							C2691.2,2881.5,2692.4,2883,2693.2,2882L2693.2,2882z"/>
					</g>
					<g>
						<path class="st15" d="M2731.1,2880.4c-4.3-5.7-8.6-11.5-12.9-17.2c-0.8-1-2,0.5-1.3,1.5c4.3,5.7,8.6,11.5,12.9,17.2
							C2730.6,2883,2731.9,2881.5,2731.1,2880.4L2731.1,2880.4z"/>
					</g>
				</g>
			</g>
		</g>
		<path class="st28" d="M2705.9,2881.2h24.9v-23.8h-11.3C2721.7,2869.2,2714,2876.7,2705.9,2881.2z"/>
	</g>
	<g>
		<g>
			<path class="st7" d="M2757.2,2715.8c-0.4-0.2-1.3,0-2,0.2c-0.2-0.8-0.5-1.5-0.9-2.2c0.7-0.4,1.4-0.8,1.6-1.3
				c0.4-1.1-1.6-3.1-1.6-3.1s-2-2-3.1-1.6c-0.4,0.2-0.9,0.9-1.3,1.6c-0.7-0.4-1.5-0.7-2.2-0.9c0.3-0.8,0.4-1.6,0.2-2
				c-0.5-1-3.3-1-3.3-1s-2.8,0-3.3,1c-0.2,0.4,0,1.3,0.2,2c-0.8,0.2-1.5,0.5-2.2,0.9c-0.4-0.7-0.8-1.4-1.3-1.6
				c-1.1-0.4-3.1,1.6-3.1,1.6s-2,2-1.6,3.1c0.1,0.4,0.9,0.9,1.6,1.3c-0.4,0.7-0.7,1.5-0.9,2.2c-0.8-0.3-1.6-0.4-2-0.2
				c-1,0.5-1,3.3-1,3.3s0,2.8,1,3.3c0.4,0.2,1.3,0,2-0.2c0.2,0.8,0.5,1.5,0.9,2.2c-0.7,0.4-1.4,0.8-1.6,1.3
				c-0.4,1.1,1.6,3.1,1.6,3.1s2,2,3.1,1.6c0.4-0.2,0.9-0.9,1.3-1.6c0.7,0.4,1.5,0.7,2.2,0.9c-0.3,0.8-0.4,1.6-0.2,2
				c0.5,1,3.3,1,3.3,1s2.8,0,3.3-1c0.2-0.4,0-1.3-0.2-2c0.8-0.2,1.5-0.5,2.2-0.9c0.4,0.7,0.8,1.4,1.3,1.6c1.1,0.4,3.1-1.6,3.1-1.6
				s2-2,1.6-3.1c-0.1-0.4-0.9-0.9-1.6-1.3c0.4-0.7,0.7-1.5,0.9-2.2c0.8,0.3,1.6,0.4,2,0.2c1-0.5,1-3.3,1-3.3
				S2758.2,2716.3,2757.2,2715.8z M2744.5,2724.2c-2.8,0-5.1-2.3-5.1-5.1c0-2.8,2.3-5.1,5.1-5.1c2.8,0,5.1,2.3,5.1,5.1
				C2749.7,2721.9,2747.4,2724.2,2744.5,2724.2z"/>
			<g class="st30">
				<path class="st15" d="M2744.5,2727c-4.3,0-7.9-3.5-7.9-7.9c0-4.3,3.5-7.9,7.9-7.9c4.3,0,7.9,3.5,7.9,7.9
					C2752.4,2723.4,2748.9,2727,2744.5,2727z M2744.5,2712.8c-3.5,0-6.3,2.8-6.3,6.3s2.8,6.3,6.3,6.3c3.5,0,6.3-2.8,6.3-6.3
					S2748,2712.8,2744.5,2712.8z"/>
			</g>
		</g>
		<path class="st28" d="M2737.9,2730.4c0.4-0.2,0.9-0.9,1.3-1.6c0.7,0.4,1.5,0.7,2.2,0.9c-0.3,0.8-0.4,1.6-0.2,2c0.5,1,3.3,1,3.3,1
			s2.8,0,3.3-1c0.2-0.4,0-1.3-0.2-2c0.8-0.2,1.5-0.5,2.2-0.9c0.4,0.7,0.8,1.4,1.3,1.6c1.1,0.4,3.1-1.6,3.1-1.6s2-2,1.6-3.1
			c-0.1-0.4-0.9-0.9-1.6-1.3c0.4-0.7,0.7-1.5,0.9-2.2c0.8,0.3,1.6,0.4,2,0.2c1-0.5,1-3.3,1-3.3s0-2.8-1-3.3c-0.4-0.2-1.3,0-2,0.2
			c-0.2-0.8-0.5-1.5-0.9-2.2c0.7-0.4,1.4-0.8,1.6-1.3c0.4-1.1-1.6-3.1-1.6-3.1s-0.1-0.1-0.2-0.2c-1.3,2.8-2.9,5.3-4.9,7.6
			c0.4,0.7,0.6,1.5,0.6,2.3c0,2.8-2.3,5.1-5.1,5.1c-1,0-1.9-0.3-2.7-0.8c-2.5,1.8-5.1,3.4-7.6,4.6c0.3,0.4,0.6,0.7,0.6,0.7
			S2736.8,2730.8,2737.9,2730.4z"/>
	</g>
	<g>
		<g>
			<path class="st31" d="M2737.4,2812.8h30.3c2,0,3.6,1.6,3.6,3.6v11.8c0,2-1.6,3.6-3.6,3.6h-15l-4.6,5.6v-5.6h-10.7
				c-2,0-3.6-1.6-3.6-3.6v-11.8C2733.7,2814.4,2735.3,2812.8,2737.4,2812.8z"/>
			<g>
				<path class="st12" d="M2752,2818.4c-1.1-0.6-2.8,0-4.1,1.5c-1.3-1.5-3-2.2-4.1-1.5c-1.4,0.8-1.4,3.4,0,5.8
					c1.1,1.9,2.8,3.1,4.1,3.1c1.3,0,3-1.1,4.1-3.1C2753.4,2821.8,2753.4,2819.2,2752,2818.4z"/>
				<text transform="matrix(1 0 0 1 2755.6177 2827.2603)" class="st12 st32 st33">1</text>
			</g>
			<path class="st28" d="M2771.3,2816.4c0-2-1.6-3.6-3.6-3.6h-6.2c0.5,10.7-9.5,16.2-18.2,19h4.8v5.6l4.6-5.6h15
				c2,0,3.6-1.6,3.6-3.6V2816.4z"/>
		</g>
	</g>
	<g>
		<g>
			<path class="st31" d="M2770.1,2724.2h30.3c2,0,3.6,1.6,3.6,3.6v11.8c0,2-1.6,3.6-3.6,3.6h-15l-4.6,5.6v-5.6h-10.7
				c-2,0-3.6-1.6-3.6-3.6v-11.8C2766.4,2725.8,2768.1,2724.2,2770.1,2724.2z"/>
			<g>
				<text transform="matrix(1 0 0 1 2788.3521 2738.3423)" class="st12 st32 st33">1</text>
				<path class="st12" d="M2783.9,2730.6h-6.2c-0.7,0-1.4,0.6-1.4,1.4v4.4c0,0.7,0.6,1.4,1.4,1.4h3l1.7,2.1v-2.1h1.4
					c0.7,0,1.4-0.6,1.4-1.4v-4.4C2785.3,2731.2,2784.7,2730.6,2783.9,2730.6z"/>
			</g>
			<path class="st28" d="M2804.1,2727.8c0-2-1.6-3.6-3.6-3.6h-6.2c0.5,10.7-9.5,16.2-18.2,19h4.8v5.6l4.6-5.6h15
				c2,0,3.6-1.6,3.6-3.6V2727.8z"/>
		</g>
	</g>
	<g>
		<text transform="matrix(1 0 0 1 2826.979 2714.0415)" class="st34 st32 st35">24/7</text>
		<path class="st34" d="M2856.4,2710.2c-0.2,8.7-5.6,16.1-13.8,18.9c-8.3,2.8-17.4-0.8-22.3-7.7c-5.1-7.1-4.4-16.9,0.9-23.6
			c5.7-7.3,16-9.2,24.2-5.3c-2.2,0.8-4.4,1.6-6.5,2.3c-1,0.4-0.6,2,0.4,1.6c2.7-1,5.3-1.9,8-2.9c0.4-0.2,0.7-0.6,0.6-1
			c-0.7-2.8-1.4-5.5-2.1-8.3c-0.3-1-1.9-0.6-1.6,0.4c0.5,2.1,1,4.1,1.5,6.2c-9-4-19.3-1.8-25.8,5.8c-6.1,7.2-6.2,17.9-1.2,25.7
			c5.2,7.9,15.3,11,24.2,8.5c9-2.6,14.9-11.3,15.1-20.5C2858.1,2709.1,2856.4,2709.1,2856.4,2710.2z"/>
	</g>
</g>
<g>
	<path class="st36" d="M2729.2,2939.8c0,1.8-7.3,3.2-16.4,3.2s-16.4-1.4-16.4-3.2c0-1.8,7.3-3.2,16.4-3.2
		S2729.2,2938.1,2729.2,2939.8z"/>
	<path class="st37" d="M2698.6,2941.4c2.8,1,8.1,1.6,14.2,1.6c6.1,0,11.3-0.6,14.2-1.6c-2.8-1-8.1-1.6-14.2-1.6
		C2706.7,2939.8,2701.4,2940.5,2698.6,2941.4z"/>
</g>
<g>
	<polygon class="st0" points="2884.8,2700.3 2882.1,2691.2 2879.5,2700.3 2871.1,2703.2 2879.5,2706 2882.1,2715.1 2884.8,2706 
		2893.1,2703.2 	"/>
	<polygon class="st12" points="2898.1,2800.6 2896.3,2794.4 2894.4,2800.6 2888.8,2802.6 2894.4,2804.5 2896.3,2810.7 
		2898.1,2804.5 2903.7,2802.6 	"/>
	<polygon class="st12" points="2926.2,2791.9 2925.2,2788.6 2924.3,2791.9 2921.3,2792.9 2924.3,2793.9 2925.2,2797.1 
		2926.2,2793.9 2929.1,2792.9 	"/>
	<polygon class="st0" points="2984.3,2835.6 2982.4,2829.3 2980.6,2835.6 2974.8,2837.6 2980.6,2839.6 2982.4,2845.9 2984.3,2839.6 
		2990.1,2837.6 	"/>
	<polygon class="st12" points="2945.2,2861.6 2943.1,2854.5 2941,2861.6 2934.5,2863.9 2941,2866.1 2943.1,2873.3 2945.2,2866.1 
		2951.7,2863.9 	"/>
	<polygon class="st12" points="2897.2,2855.8 2896.3,2852.6 2895.3,2855.8 2892.4,2856.8 2895.3,2857.9 2896.3,2861.1 
		2897.2,2857.9 2900.1,2856.8 	"/>
	<polygon class="st0" points="2963.2,2746.8 2962.1,2743.2 2961.1,2746.8 2957.8,2747.9 2961.1,2749.1 2962.1,2752.7 2963.2,2749.1 
		2966.5,2747.9 	"/>
	<polygon class="st0" points="2758.3,2682.4 2757.3,2678.8 2756.2,2682.4 2752.9,2683.6 2756.2,2684.7 2757.3,2688.3 2758.3,2684.7 
		2761.6,2683.6 	"/>
	<polygon class="st0" points="2930.5,2688.1 2928.7,2681.7 2926.8,2688.1 2921,2690 2926.8,2692 2928.7,2698.3 2930.5,2692 
		2936.3,2690 	"/>
	<polygon class="st0" points="2793.8,2700.9 2791.9,2694.6 2790,2700.9 2784.3,2702.9 2790,2704.9 2791.9,2711.2 2793.8,2704.9 
		2799.5,2702.9 	"/>
	<polygon class="st0" points="2708,2710.1 2706.9,2706.5 2705.9,2710.1 2702.6,2711.2 2705.9,2712.3 2706.9,2716 2708,2712.3 
		2711.3,2711.2 	"/>
	<polygon class="st0" points="2673.4,2782 2670.7,2772.9 2668,2782 2659.7,2784.9 2668,2787.7 2670.7,2796.8 2673.4,2787.7 
		2681.7,2784.9 	"/>
	<polygon class="st12" points="2776.7,2768.6 2773.8,2758.7 2770.9,2768.6 2761.8,2771.7 2770.9,2774.8 2773.8,2784.8 
		2776.7,2774.8 2785.8,2771.7 	"/>
	<polygon class="st12" points="2698.2,2827 2696.4,2820.8 2694.6,2827 2688.9,2828.9 2694.6,2830.9 2696.4,2837 2698.2,2830.9 
		2703.8,2828.9 	"/>
	<polygon class="st12" points="2767.4,2855.8 2766.4,2852.6 2765.5,2855.8 2762.6,2856.8 2765.5,2857.9 2766.4,2861.1 
		2767.4,2857.9 2770.3,2856.8 	"/>
	<polygon class="st12" points="2744.1,2898.9 2742.3,2892.8 2740.5,2898.9 2734.8,2900.9 2740.5,2902.8 2742.3,2909 2744.1,2902.8 
		2749.7,2900.9 	"/>
	<polygon class="st0" points="2659.1,2887.3 2657.2,2881 2655.3,2887.3 2649.6,2889.3 2655.3,2891.3 2657.2,2897.6 2659.1,2891.3 
		2664.8,2889.3 	"/>
	<polygon class="st0" points="2665.9,2915.1 2664.9,2911.5 2663.8,2915.1 2660.5,2916.3 2663.8,2917.4 2664.9,2921 2665.9,2917.4 
		2669.2,2916.3 	"/>
	<polygon class="st0" points="3011.6,2907 3009.7,2900.7 3007.8,2907 3002.1,2909 3007.8,2910.9 3009.7,2917.3 3011.6,2910.9 
		3017.3,2909 	"/>
</g>
<g>
	<g>
		<path class="st0" d="M4084.2,3817.8H1596.3l-2-2.4c-1.1-1.4-113-137.6-0.4-299.8c112.3-161.6,134.2-226,74.8-370.6
			c-10.4-25.2-23.5-52.4-37.4-81.2c-70-145.1-157.2-325.7,2.7-464.8c12.7-11.1,25.1-21.8,37.3-32.3
			c163.2-141.4,271-234.7,312.3-401.4c16.9-68.2,53.8-165.9,133.4-243.6c75.1-73.2,169.2-110.3,279.8-110.3
			c86.1,0,181.5,23.1,283.5,68.6c301.3,134.5,407.7,173.6,532.5,173.6c41.5,0,85.7-4.1,143.6-9.9c23.2-2.3,47-3.5,70.6-3.5
			c151.7,0,283.3,46.5,361,127.7c61.6,64.3,90.6,148.8,86.2,251.3c-2.6,61.6-6.8,113.9-10.5,160c-15,187.2-20.6,257.3,119.2,378
			c202.6,175,336.2,492.2,103.4,857.6L4084.2,3817.8z M1602.7,3804.3h2474.1c225.5-356.8,95-666.2-102.8-837
			c-145-125.2-138.8-202.5-123.8-389.3c3.7-46,7.9-98.1,10.5-159.5c4.2-98.6-23.5-179.8-82.4-241.3
			c-75.2-78.5-203.3-123.5-351.3-123.5c-23.2,0-46.5,1.2-69.3,3.4c-58.3,5.8-102.8,10-145,10c-127.3,0-234.7-39.4-538-174.7
			c-100.3-44.8-193.8-67.5-278-67.5c-73.9,0-321.2,24.8-400.2,343.7c-42.3,170.8-151.4,265.3-316.6,408.4
			c-12.1,10.5-24.5,21.2-37.2,32.3c-152.1,132.4-67.4,307.8,0.6,448.7c14,29,27.3,56.4,37.8,82c64.9,157.9,32.6,226.8-76.2,383.4
			C1506.2,3665.5,1588.9,3786,1602.7,3804.3z"/>
	</g>
	<path class="st0" d="M1648.1,3811.1c0,0-106.7-126.8,0-280.5c106.7-153.7,132.4-217.3,72.6-362.6c-59.8-145.4-215.5-361-35.2-517.9
		c180.3-156.9,295.2-246.4,338.3-420.5c56.3-227.3,259.6-449.3,661.3-270c401.7,179.3,440.2,179.3,653.6,158
		c213.5-21.3,503.8,55.7,491,354.4c-12.8,298.8-64,375.2,106.7,522.7c170.8,147.5,333,448,98.2,816.5H1648.1z"/>
</g>
<g>
	<g>
		<path class="st1" d="M2581.4,2499.4c0,0-102.8,634.6,289.9,634.6c392.7,0,300.9-659.3,300.9-659.3l-578.7,24.7"/>
		<g class="st2">
			<g>
				<path class="st3" d="M2619.2,2588.8c0,0-0.1,6.9-0.2,19c-0.2,12.1,0.3,29.3,1,49.9c0.7,20.6,2.1,44.6,4.4,70.1
					c1.1,12.8,2.8,25.9,4.4,39.3c1.8,13.3,3.8,26.8,6.4,40.2c2.3,13.4,5.2,26.8,8.4,39.8c1.5,6.5,3.5,12.9,5,19.2
					c1.8,6.3,3.7,12.5,5.6,18.6c2.1,6,4.1,11.9,6.2,17.7c2.2,5.7,4.3,11.4,6.5,16.7c2.4,5.3,4.7,10.5,6.9,15.6
					c2.4,4.9,4.8,9.7,7,14.3c5,8.9,9.5,17.1,14.1,24.1c4.3,7.2,9,12.7,12.4,17.7c7.5,9.3,12,14.7,12,14.7s-1.3-1.2-3.7-3.3
					c-2.3-2.2-6.1-5.2-10.3-9.6c-4-4.6-9.4-9.7-14.5-16.5c-2.6-3.3-5.6-6.8-8.3-10.7c-2.7-4-5.5-8.1-8.4-12.5
					c-2.7-4.5-5.5-9.2-8.4-14c-2.7-4.9-5.3-10.2-8.1-15.5c-2.6-5.4-5.1-11.1-7.7-16.8c-2.4-5.8-4.7-11.9-7-18
					c-4.3-12.4-8.6-25.2-12-38.5c-3.4-13.3-6.6-26.9-9-40.6c-2.5-13.7-4.3-27.5-6-41.1c-1.6-13.6-2.5-27-3.3-40
					c-0.8-13-1-25.6-1-37.5c-0.1-11.9,0.3-23.2,0.7-33.5c0.9-20.8,2.8-38,4.2-50C2617.9,2595.6,2619.2,2588.8,2619.2,2588.8z"/>
				<path class="st3" d="M2667.7,2588.8c0,0,0.4,6.4,1.1,17.6c0.4,5.6,0.9,12.4,1.4,20.2c0.6,7.8,1.3,16.6,2.1,26.1
					c0.9,9.6,1.9,19.9,2.9,30.8c1.1,10.9,2.3,22.4,3.8,34.3c1.2,11.9,3.1,24.1,4.8,36.6c1.4,12.5,3.9,25,5.9,37.6
					c2.1,12.6,4.7,25,7,37.3c3,12.2,5.3,24.3,8.2,35.8c3.3,11.4,5.9,22.7,9.1,33.1c3.4,10.4,6.5,20.3,9.5,29.3
					c3.5,8.9,6.6,17.1,9.4,24.3c0.7,1.8,1.4,3.6,2,5.3c0.8,1.7,1.5,3.2,2.3,4.7c1.4,3.1,2.7,5.9,3.9,8.4c4.7,10.2,7.4,16.1,7.4,16.1
					s-3.5-5.4-9.7-14.8c-1.5-2.4-3.2-5-5.1-7.9c-0.9-1.4-1.9-2.9-2.9-4.5c-0.8-1.6-1.7-3.3-2.6-5.1c-3.6-7-7.6-14.9-11.9-23.6
					c-3.9-8.9-7.7-18.7-11.8-29c-3.9-10.4-7.3-21.7-11-33.2c-3.3-11.7-6.4-23.8-9.5-36.2c-2.5-12.5-5.3-25.1-7.5-37.8
					c-1.8-12.8-4.2-25.5-5.5-38.1c-1.6-12.6-2.8-25.1-3.7-37.1c-1.1-12-1.5-23.7-2-34.8c-0.6-11.1-0.5-21.5-0.6-31.2
					C2664.6,2614.5,2667.7,2588.8,2667.7,2588.8z"/>
				<path class="st3" d="M2741.7,2606.2c0,0,1.4,23.9,3.4,59.7c1,17.8,2.2,38.7,3.5,61c0.7,11.1,1.5,22.6,2.3,34.3
					c0.8,11.7,1.7,23.5,2.8,35.4c0.9,11.8,2,23.7,3.3,35.3c1.3,11.6,2.5,23,4,34.1c1.5,11,3.1,21.6,4.7,31.7
					c1.8,10,3.6,19.4,5.4,28.1c2,8.6,4,16.5,6,23.5c2.2,6.9,3.9,12.9,5.9,17.7c1.8,4.9,3.4,8.6,4.6,11.2c1.2,2.6,1.8,3.9,1.8,3.9
					s-0.8-1.2-2.4-3.6c-1.6-2.3-4-5.7-6.4-10.4c-2.7-4.6-5.4-10.4-8.4-17.1c-1.4-3.4-2.8-7.1-4.4-10.9c-1.3-3.9-2.7-8-4.2-12.3
					c-1.3-4.3-2.7-8.8-4.1-13.5c-1.2-4.7-2.5-9.6-3.7-14.6c-2.4-10.1-4.7-20.8-6.6-31.9c-1.9-11.1-3.9-22.6-5.2-34.4
					c-1.4-11.7-2.7-23.7-3.8-35.6c-1-12-1.7-23.9-2.3-35.7c-0.7-11.8-0.9-23.4-1.1-34.6c-0.4-22.5-0.1-43.4,0.6-61.4
					C2738.7,2630.1,2741.7,2606.2,2741.7,2606.2z"/>
			</g>
			<g>
				<path class="st3" d="M3123.4,2588.8c0,0,0.1,6.9,0.2,19c0.2,12.1-0.3,29.3-0.9,49.9c-0.7,20.6-2.1,44.6-4.4,70.1
					c-1.1,12.8-2.7,25.9-4.3,39.3c-1.8,13.3-3.8,26.8-6.4,40.2c-2.3,13.4-5.2,26.8-8.4,39.8c-1.5,6.5-3.5,12.9-5,19.2
					c-1.8,6.3-3.7,12.5-5.6,18.6c-2.1,6-4.1,11.9-6.1,17.7c-2.2,5.7-4.3,11.4-6.5,16.7c-2.4,5.3-4.7,10.5-6.9,15.6
					c-2.4,4.9-4.8,9.7-7,14.3c-5,8.9-9.5,17.1-14.1,24.1c-4.3,7.2-9,12.7-12.4,17.7c-7.5,9.3-12,14.7-12,14.7s1.3-1.2,3.7-3.3
					c2.3-2.2,6.1-5.2,10.3-9.6c4-4.6,9.4-9.7,14.5-16.5c2.6-3.3,5.6-6.8,8.3-10.7c2.7-4,5.5-8.1,8.4-12.5c2.7-4.5,5.5-9.2,8.4-14
					c2.7-4.9,5.3-10.2,8-15.5c2.6-5.4,5.1-11.1,7.7-16.8c2.4-5.8,4.7-11.9,7-18c4.3-12.4,8.6-25.2,12-38.5c3.4-13.3,6.6-26.9,9-40.6
					c2.5-13.7,4.3-27.5,6-41.1c1.6-13.6,2.5-27,3.3-40c0.8-13,1-25.6,1-37.5c0.1-11.9-0.3-23.2-0.7-33.5c-0.9-20.8-2.8-38-4.1-50
					C3124.6,2595.6,3123.4,2588.8,3123.4,2588.8z"/>
				<path class="st3" d="M3074.9,2588.8c0,0-0.4,6.4-1.1,17.6c-0.4,5.6-0.9,12.4-1.4,20.2c-0.6,7.8-1.3,16.6-2.1,26.1
					c-0.9,9.6-1.9,19.9-2.9,30.8c-1.1,10.9-2.3,22.4-3.8,34.3c-1.2,11.9-3.1,24.1-4.8,36.6c-1.4,12.5-3.9,25-5.9,37.6
					c-2.1,12.6-4.6,25-7,37.3c-3,12.2-5.3,24.3-8.2,35.8c-3.3,11.4-5.9,22.7-9.1,33.1c-3.4,10.4-6.5,20.3-9.5,29.3
					c-3.4,8.9-6.6,17.1-9.4,24.3c-0.7,1.8-1.4,3.6-2,5.3c-0.8,1.7-1.5,3.2-2.2,4.7c-1.4,3.1-2.7,5.9-3.9,8.4
					c-4.7,10.2-7.3,16.1-7.3,16.1s3.5-5.4,9.7-14.8c1.5-2.4,3.2-5,5.1-7.9c0.9-1.4,1.9-2.9,2.9-4.5c0.8-1.6,1.7-3.3,2.6-5.1
					c3.6-7,7.7-14.9,11.9-23.6c3.9-8.9,7.7-18.7,11.8-29c3.9-10.4,7.3-21.7,11-33.2c3.3-11.7,6.4-23.8,9.5-36.2
					c2.5-12.5,5.3-25.1,7.5-37.8c1.8-12.8,4.2-25.5,5.5-38.1c1.6-12.6,2.8-25.1,3.7-37.1c1.1-12,1.5-23.7,2-34.8
					c0.6-11.1,0.5-21.5,0.6-31.2C3077.9,2614.5,3074.9,2588.8,3074.9,2588.8z"/>
				<path class="st3" d="M3000.9,2606.2c0,0-1.4,23.9-3.4,59.7c-1,17.8-2.2,38.7-3.5,61c-0.7,11.1-1.5,22.6-2.3,34.3
					c-0.8,11.7-1.7,23.5-2.8,35.4c-0.9,11.8-2,23.7-3.3,35.3c-1.3,11.6-2.5,23-4,34.1c-1.5,11-3.1,21.6-4.7,31.7
					c-1.8,10-3.6,19.4-5.4,28.1c-2,8.6-4,16.5-6,23.5c-2.2,6.9-3.9,12.9-5.9,17.7c-1.8,4.9-3.5,8.6-4.6,11.2
					c-1.2,2.6-1.8,3.9-1.8,3.9s0.8-1.2,2.4-3.6c1.6-2.3,4-5.7,6.4-10.4c2.7-4.6,5.4-10.4,8.4-17.1c1.4-3.4,2.8-7.1,4.4-10.9
					c1.3-3.9,2.7-8,4.2-12.3c1.3-4.3,2.7-8.8,4.1-13.5c1.2-4.7,2.5-9.6,3.7-14.6c2.4-10.1,4.7-20.8,6.6-31.9
					c1.9-11.1,3.8-22.6,5.2-34.4c1.5-11.7,2.7-23.7,3.8-35.6c1-12,1.7-23.9,2.4-35.7c0.7-11.8,0.9-23.4,1.1-34.6
					c0.4-22.5,0.1-43.4-0.6-61.4C3003.9,2630.1,3000.9,2606.2,3000.9,2606.2z"/>
			</g>
		</g>
	</g>
	<g>
		<g>
			<g>
				<g>
					<g>
						<g>
							<polygon class="st4" points="2939.3,2723 2871.3,2723 2803.2,2723 2745.1,2959.1 2871.3,3134 2997.4,2944.6 							"/>
						</g>
						<path class="st5" d="M2939.3,2723h-68h-68l-14.2,57.5c40.2,40.5,123.8,67.3,175.3,38.2L2939.3,2723z"/>
					</g>
					<g>
						<g>
							<g>
								<path class="st4" d="M2630,2490.5c0,0-41-65.9-65.5-34.6c-24.6,31.3,15,106.8,65.5,94V2490.5z"/>
								<path class="st4" d="M3112.6,2490.5c0,0,40.9-65.9,65.5-34.6c24.6,31.3-15,106.8-65.5,94V2490.5z"/>
							</g>
							<g>
								<path class="st4" d="M2872.1,2132.4c-278.5,0-256.6,355.8-251.2,442.5c5.5,86.8,58.7,116.6,128.3,171.2
									c69.6,54.6,122.9,48.8,122.9,48.8s53.3,5.8,122.9-48.8c69.6-54.6,122.8-84.4,128.3-171.2
									C3128.8,2488.2,3150.7,2132.4,2872.1,2132.4z"/>
								<path class="st6" d="M3124.5,2447.7c1.7,46.7-0.7,86.3-2.1,108.4c-5.4,86.8-58.7,116.6-128.3,171.2
									c-69.6,54.6-122.9,48.8-122.9,48.8s-53.3,5.7-122.9-48.8c-69.6-54.6-122.9-84.4-128.3-171.2c-0.3-4.4-0.6-9.6-0.9-15.3
									c0.6,13.7,1.3,25.4,1.8,34.2c5.5,86.8,58.7,116.6,128.3,171.2c69.6,54.6,122.9,48.8,122.9,48.8s53.3,5.8,122.9-48.8
									c69.6-54.6,122.8-84.4,128.3-171.2C3124.9,2549.9,3127.8,2502.5,3124.5,2447.7z"/>
							</g>
						</g>
					</g>
					<g>
						<path class="st7" d="M3224,2907.9l-251.5-58.2c0,78.8-88.6,78.5-95.8,77.1v-0.1c0,0-0.1,0-0.3,0c-0.2,0-0.3,0-0.3,0v0.1
							c-7.2,1.4-104.2,1.7-104.2-77.1l-243.1,58.2l51.8,239.9c0,0-66.8,146.3,49.6,249.7l21.4,356.6h224.5h0.5h231.8l14-356.6
							c116.3-103.4,49.6-249.7,49.6-249.7L3224,2907.9z"/>
						<path class="st8" d="M2876.2,2951.1v-0.1c0,0,0.1,0,0.3,0.1c0.2,0,0.3-0.1,0.3-0.1v0.1c9,1.8,119.5,2.1,120.9-95.6l-25.2-5.8
							c0,78.8-88.6,78.5-95.8,77.1v-0.1c0,0-0.1,0-0.3,0c-0.2,0-0.3,0-0.3,0v0.1c-7.2,1.4-104.2,1.7-104.2-77.1l-27.3,6.5
							C2746.8,2953.2,2867.2,2952.9,2876.2,2951.1z"/>
					</g>
					<g>
						<g>
							<g>
								<path class="st9" d="M2942.4,2454c0,0-1.7-20.1,5.2-24.1c6.9-4,68.1-6.1,90.6,0c22.4,6,31.9,33.9,31.9,33.9
									s-8.1-11.6-42.6-15.2C3002,2446,2951,2458,2942.4,2454z"/>
								<path class="st9" d="M2801.9,2454c0,0,1.7-20.1-5.2-24.1c-6.9-4-68.1-6.1-90.5,0c-22.4,6-31.9,33.9-31.9,33.9
									s8.1-11.6,42.6-15.2C2742.2,2446,2793.3,2458,2801.9,2454z"/>
							</g>
							<g>
								<path class="st10" d="M3022.8,2522.3c0,14.8-8.1,26.8-18.2,26.8c-10,0-18.2-12-18.2-26.8c0-14.8,8.1-26.8,18.2-26.8
									C3014.7,2495.5,3022.8,2507.5,3022.8,2522.3z"/>
								<path class="st10" d="M2761.7,2522.3c0,14.8-8.1,26.8-18.2,26.8c-10,0-18.2-12-18.2-26.8c0-14.8,8.1-26.8,18.2-26.8
									C2753.5,2495.5,2761.7,2507.5,2761.7,2522.3z"/>
							</g>
						</g>
						<g>
							<path class="st11" d="M2791.7,2660.4c0,0,23.7,56.2,80.4,56.2c56.7,0,80.3-56.2,80.3-56.2S2886.2,2690,2791.7,2660.4z"/>
							<path class="st12" d="M2791.9,2660.8c0,0,39,32.2,81.3,32.2s78.3-32.2,78.3-32.2S2885.2,2698.1,2791.9,2660.8z"/>
							<g>
								<g>
									<path class="st11" d="M2954.6,2658.9c0,0-55.9-3.4-66.7,0c-10.7,3.4-11.3,3.7-14.8,3.7c-3.7,0-4.2-0.3-14.8-3.7
										c-10.8-3.4-66.7,0-66.7,0C2857.5,2691.7,2942.5,2671.2,2954.6,2658.9z"/>
								</g>
								<g>
									<path class="st11" d="M2778.6,2654.6c55.8,28.8,131.9,30.8,187.1,0c1.2-0.7,0-2.3-1.2-1.6c-54.5,30.4-129.5,28.5-184.7,0
										C2778.5,2652.3,2777.3,2653.9,2778.6,2654.6L2778.6,2654.6z"/>
								</g>
							</g>
						</g>
						<path class="st13" d="M2843,2606.2c0,0,4.1,1.4,10.1,3.5c2.9,0.8,6.1,1.9,9.4,2.6c1.6,0.4,3.3,0.6,5,0.9
							c1.7,0.1,3.3,0.5,5,0.4c1.6,0.2,3.2,0,4.9-0.1c1.6,0.1,3.2-0.6,4.8-0.7c1.6-0.3,3.1-0.9,4.6-1.2c1.6-0.3,2.9-1.1,4.4-1.5
							c1.4-0.5,2.8-0.9,3.9-1.5c1.1-0.5,2.2-0.9,3.1-1.3c1.8-0.7,3-1.1,3-1.1s-0.3,1.1-1.1,2.9c-0.8,1.8-1.9,4.6-4.3,7.1
							c-1.2,1.3-2.3,3-4,4.1c-1.7,1.2-3.4,2.6-5.5,3.6c-2.1,0.8-4.3,2.1-6.8,2.4c-2.4,0.5-5,0.9-7.5,0.7c-2.5,0-5-0.5-7.3-1.1
							c-2.3-0.7-4.5-1.5-6.5-2.6c-4-2.1-7.1-4.8-9.4-7.4C2844.2,2610.9,2843,2606.2,2843,2606.2z"/>
					</g>
					<g class="st14">
						<path class="st11" d="M2750.7,2595.9c0,24.6-22.7,44.6-50.7,44.6c-28,0-50.7-20-50.7-44.6c0-24.6,22.7-44.6,50.7-44.6
							C2728.1,2551.4,2750.7,2571.3,2750.7,2595.9z"/>
						<path class="st11" d="M3101.3,2595.9c0,24.6-22.7,44.6-50.7,44.6c-28,0-50.7-20-50.7-44.6c0-24.6,22.7-44.6,50.7-44.6
							C3078.6,2551.4,3101.3,2571.3,3101.3,2595.9z"/>
					</g>
				</g>
				<path class="st15" d="M3222.8,2907.9c0,0,89.9,30.8,133,133.3c43.1,102.5,148.5,411.3,131.3,479.9
					c-18.4,73.7-375,215.7-375,215.7l-53.9-93.1c0,0,220.6-154.4,257.4-183.8l-143.4-312L3222.8,2907.9z"/>
				<path class="st15" d="M2529.8,2907.9c0,0-89.9,30.8-133,133.3c-43.1,102.5-148.5,411.3-131.3,479.9
					c18.4,73.7,375,215.7,375,215.7l53.9-93.1c0,0-220.6-154.4-257.4-183.8l143.7-312L2529.8,2907.9z"/>
				<path class="st15" d="M2996.1,3392.8c-48.7-15.1-94.7-27.8-119.8-27.8v0v0c-25.1,0-71.1,12.7-119.8,27.8
					c-48.7,15.1-83.5,7-83.5,7c34.6,21.4,82.4,24.4,129.8,7c41.9-15.4,73.4-15.1,73.4-15.1v0v0c0,0,31.1,0.8,73.4,15.1
					c48.3,16.3,95.3,14.5,129.8-7C3079.6,3399.8,3044.8,3407.9,2996.1,3392.8z"/>
				<g>
					<path class="st16" d="M3177.6,2469c-10.4-9.1-18.9-8.2-25.9-2.4c-0.8,0.4-1.5,1-1.9,1.7c-12.1,12.3-18.8,39.9-20.9,52.9
						c-0.9,5.3,7.3,7.6,8.1,2.2c1.4-8.9,6.6-35,16.1-46.7c5.5,10.1,6.1,22.1-0.2,32.4c-2.8,4.6,4.5,8.9,7.3,4.2
						c7.9-13,7.3-29.1-0.4-41.8c3.5-1.2,7.4-0.4,11.7,3.4C3175.7,2478.5,3181.7,2472.6,3177.6,2469z"/>
					<path class="st16" d="M2569.8,2469c10.4-9.1,19-8.2,25.9-2.4c0.8,0.4,1.5,1,1.9,1.7c12.1,12.3,18.8,39.9,20.9,52.9
						c0.9,5.3-7.3,7.6-8.1,2.2c-1.4-8.9-6.6-35-16.1-46.7c-5.5,10.1-6.1,22.1,0.2,32.4c2.8,4.6-4.5,8.9-7.3,4.2
						c-7.9-13-7.3-29.1,0.4-41.8c-3.5-1.2-7.4-0.4-11.7,3.4C2571.7,2478.5,2565.7,2472.6,2569.8,2469z"/>
				</g>
			</g>
			<path class="st4" d="M3070.7,3665.3c0,0-77.5-1.2-89.8,10.1c-12.4,11.2-49.4,79.8-43.8,86.5c5.6,6.7,93.3-9,115.7-18
				c22.5-9,52.2-19.4,52.2-19.4L3070.7,3665.3z"/>
			<path class="st4" d="M2678.9,3665.3c0,0,77.5-1.2,89.8,10.1c12.4,11.2,49.4,79.8,43.8,86.5c-5.6,6.7-93.3-9-115.7-18
				c-22.5-9-52.2-19.4-52.2-19.4L2678.9,3665.3z"/>
		</g>
		<g>
			<path class="st1" d="M2618.6,2474.7c0,0,133.8-69,170.5-200.5c0,0,109.5,185.3,336.6,200.5c0,0,21.8-30.3,46.3-24.4
				c0,0,15.6-355.9-300.7-355.9c-316.3,0-289.3,353.2-289.3,353.2S2599.4,2452.6,2618.6,2474.7z"/>
			<g class="st2">
				<path class="st3" d="M2830.3,2216.9c0,0,3.1,4,8.9,10.6c5.8,6.6,14.1,16,24.5,26.8c5.1,5.5,11,11.1,17.1,17.1
					c6.1,6,12.9,11.9,19.7,18.3c7.1,6,14.2,12.5,22,18.5c3.8,3.1,7.6,6.1,11.5,9.2c3.9,3,8,5.8,12,8.7c4,2.9,7.9,6,12,8.7
					c4.1,2.7,8.2,5.4,12.3,8.1c8.1,5.5,16.4,10.2,24.4,14.9c7.9,4.9,16,8.8,23.6,12.7c3.8,2,7.5,3.9,11.1,5.7
					c3.7,1.6,7.2,3.2,10.6,4.7c6.9,2.9,13,6.1,18.7,8.3c5.7,2.2,10.7,4,14.8,5.6c8.2,3.3,12.9,5.1,12.9,5.1s-5-0.8-13.6-2.6
					c-4.3-0.9-9.6-2-15.7-3.3c-6-1.4-12.6-3.7-19.9-6c-3.6-1.2-7.4-2.4-11.4-3.6c-3.8-1.5-7.7-3.2-11.8-4.9
					c-8-3.4-16.7-6.7-25.1-11.4c-8.4-4.5-17.4-8.7-25.7-14.4c-4.2-2.7-8.5-5.4-12.8-8.1c-4.3-2.7-8.3-5.9-12.5-8.8
					c-4.1-3.1-8.3-6-12.2-9.2c-3.9-3.2-7.8-6.5-11.7-9.7c-3.9-3.1-7.7-6.4-11.2-9.9c-3.6-3.4-7.1-6.7-10.6-10
					c-6.7-6.8-13.1-13.4-18.9-20c-5.8-6.6-11.1-12.9-15.7-19c-4.8-5.9-8.7-11.7-12.2-16.8c-3.5-5.1-6.3-9.7-8.6-13.5
					C2832.4,2221.5,2830.3,2216.9,2830.3,2216.9z"/>
				<path class="st3" d="M2862.8,2169.7c0,0,13.2,11.9,33.4,28.8c5.1,4.2,10.6,8.7,16.4,13.6c5.9,4.7,12.1,9.7,18.5,14.8
					c13,10,26.8,20.8,41.2,30.7l10.6,7.7c3.6,2.4,7.2,4.8,10.8,7.2c7.1,4.8,14.2,9.5,21.1,13.8c6.9,4.5,13.6,8.6,20.1,12.4
					c6.5,3.9,12.5,7.6,18.3,10.7c5.7,3.2,11,6.2,15.7,8.8c4.8,2.5,8.9,4.6,12.4,6.4c6.8,3.6,10.7,5.8,10.7,5.8s-4.3-1.1-11.7-3.3
					c-3.7-1.1-8.2-2.5-13.4-4.2c-5.1-1.8-10.8-4.1-17-6.6c-3.1-1.3-6.4-2.5-9.7-4c-3.3-1.6-6.6-3.2-10.1-4.8
					c-6.9-3.3-14.2-6.8-21.4-11c-7.3-4.1-14.9-8.2-22.2-13.1c-3.7-2.4-7.4-4.8-11.2-7.2l-11-7.6c-7.3-5.1-14.3-10.7-21.2-16
					c-7-5.3-13.3-11.2-19.7-16.5c-12.4-11.2-23.6-22-32.6-31.9c-9.1-9.7-16.1-18.4-20.9-24.5
					C2865.3,2173.5,2862.8,2169.7,2862.8,2169.7z"/>
				<path class="st3" d="M2883.1,2133.8c0,0,17.6,0.4,43.3,6.6c6.4,1.7,13.4,3.2,20.5,5.7c3.6,1.2,7.3,2.4,11.1,3.6
					c3.7,1.4,7.5,2.9,11.4,4.4c7.8,2.9,15.5,6.7,23.4,10.4c7.7,4.1,15.5,8.3,23.1,12.9l11,7.5l5.5,3.7l5.2,4.1
					c6.9,5.4,13.6,10.8,19.4,16.9c2.9,3,5.9,5.8,8.7,8.7c2.9,2.8,5.1,6.2,7.5,9.1c4.7,6.1,9.5,11.5,12.6,17.4
					c3.5,5.7,6.5,11,9.1,15.6c2.2,4.9,3.9,9.3,5.3,12.9c2.8,7.2,4.3,11.2,4.3,11.2s-2.5-3.6-6.7-10c-2-3.2-4.5-7-7.4-11.4
					c-3.3-4.1-7.1-8.7-11-13.8c-3.7-5.3-9-9.9-13.8-15.3c-4.8-5.5-10.8-10.4-16.7-15.7c-5.7-5.6-12.6-10.1-19.1-15.3l-5-3.8
					l-5.3-3.5l-10.7-6.9c-7.2-4.5-14.6-8.7-22-12.8c-7.6-3.6-14.7-8-22.1-11.1c-3.7-1.7-7.2-3.3-10.7-5c-3.6-1.5-7-3-10.4-4.4
					c-6.8-2.9-13.4-5.3-19.4-7.8c-12.1-4.5-22.4-8.1-29.6-10.4C2887.3,2135,2883.1,2133.8,2883.1,2133.8z"/>
				<path class="st3" d="M2773,2216.9c0,0-0.7,4-2.7,10.8c-1.9,6.8-5,16.5-9.6,27.7c-4.4,11.3-10.6,24.1-17.8,37.5
					c-3.9,6.5-7.5,13.6-12,20.2c-4.4,6.7-8.8,13.5-13.7,20c-2.5,3.2-4.9,6.5-7.4,9.7c-2.6,3.1-5.2,6.2-7.7,9.3
					c-4.9,6.3-10.6,11.8-15.9,17.4c-5.1,5.7-10.7,10.5-15.9,15.1c-2.6,2.3-5.1,4.6-7.6,6.7c-2.6,2-5.1,3.9-7.6,5.8
					c-4.9,3.7-9.3,7-13.4,9.8c-4.2,2.6-7.9,4.8-10.9,6.7c-6.1,3.6-9.6,5.6-9.6,5.6s2.9-2.9,8-7.7c2.6-2.4,5.7-5.3,9.3-8.6
					c3.4-3.5,7.3-7.3,11.5-11.6c2.1-2.1,4.3-4.3,6.6-6.6c2.2-2.4,4.4-4.8,6.7-7.3c4.6-5,9.5-10.2,14.2-15.9
					c4.9-5.6,9.8-11.5,14.5-17.6c2.4-3,4.9-6.1,7.3-9.2l7-9.6c4.9-6.2,9.3-12.7,13.7-19.2c4.5-6.4,8.6-12.9,12.7-19
					c3.8-6.4,7.8-12.3,11.3-18.2c3.4-5.9,6.8-11.4,9.8-16.6C2765.7,2231.4,2773,2216.9,2773,2216.9z"/>
				<path class="st3" d="M2802.1,2146.1c0,0-1,0.2-2.8,0.9c-1.8,0.5-4.4,1.6-7.8,2.8c-3.3,1.4-7.3,2.9-11.7,5.1
					c-4.5,2-9.3,4.7-14.6,7.5c-2.7,1.3-5.2,3.2-8,4.9c-2.7,1.7-5.6,3.3-8.3,5.4c-2.8,2-5.6,4-8.5,6.1c-2.8,2.2-5.6,4.5-8.5,6.9
					c-6,4.4-11.1,10.2-16.9,15.4c-5.4,5.6-10.7,11.5-15.8,17.5c-4.7,6.4-10,12.3-14.2,18.9c-4,6.7-8.9,12.8-12.4,19.3
					c-3.5,6.6-7.1,12.9-10.6,18.8c-3,6.2-5.7,12.1-8.3,17.6c-1.3,2.7-2.6,5.3-3.8,7.8c-1.1,2.5-2,5-3,7.3c-1.9,4.6-3.5,8.6-4.9,11.8
					c-2.8,6.6-4.5,10.3-4.5,10.3s0.6-4,2-11.1c0.7-3.5,1.6-7.8,2.6-12.7c0.6-2.4,1-5.1,1.7-7.8c0.9-2.7,1.8-5.5,2.7-8.4
					c1.9-5.9,3.9-12.3,6.4-19c2.9-6.5,5.9-13.4,9.3-20.4c1.5-3.6,3.7-6.9,5.7-10.4c2-3.5,4.1-7,6.3-10.4c4.3-7,9.8-13.4,14.6-20.2
					c5.5-6.3,11.2-12.4,17.1-18.2c6.2-5.4,12.1-11,18.7-15.4c3.2-2.2,6.2-4.7,9.5-6.6c3.3-1.9,6.5-3.7,9.6-5.5
					c6.2-3.6,12.5-6.3,18.2-8.7c5.8-2.3,11.2-4.2,16.1-5.4c4.8-1.5,9.2-2.1,12.7-2.9C2798,2146.1,2802.1,2146.1,2802.1,2146.1z"/>
			</g>
		</g>
	</g>
	<g>
		<g>
			<path class="st17" d="M2602.9,2401.3l-40.4-0.2c0-3.3,5.1-332.5,314.4-332.5c308.4,0,312,329.2,312,332.6h-40.4
				c0-11.9-3.8-292.1-271.5-292.1c-112.9,0-193.2,48.6-238.6,144.6C2603.6,2326.8,2602.9,2400.5,2602.9,2401.3z"/>
		</g>
		<path class="st18" d="M2602.9,2401.3c0-0.7,0.7-74.4,35.4-147.6c45.4-96,125.7-144.6,238.6-144.6c267.8,0,271.5,280.2,271.5,292.1
			h21.2c-1.9-42.1-24.9-306.7-292.8-306.7c-268.9,0-293,264.9-295.1,306.7L2602.9,2401.3z"/>
	</g>
	<g>
		<g>
			<g>
				<path class="st17" d="M3143.2,2560.1c-36.9,31.6-73.9,63.2-110.8,94.8c-9,7.7,2.4,22.1,11.4,14.4
					c36.9-31.6,73.9-63.2,110.8-94.8C3163.5,2566.8,3152.2,2552.4,3143.2,2560.1L3143.2,2560.1z"/>
			</g>
			<g>
				<path class="st19" d="M3074.7,2633.6c6.8,8.6,5.4,21-3.2,27.8l-30.9,24.5c-8.6,6.8-21,5.4-27.8-3.2l0,0
					c-6.8-8.6-5.4-21,3.2-27.8l30.9-24.5C3055.4,2623.6,3067.9,2625,3074.7,2633.6L3074.7,2633.6z"/>
				<path class="st20" d="M3074.7,2633.6c-4.6-5.8-11.9-8.3-18.8-7.1c1.1,0.9,2.1,1.9,3,3c6.8,8.6,5.4,21-3.2,27.8l-30.9,24.5
					c-2.7,2.2-5.8,3.4-9,3.9c7.1,5.8,17.4,6.1,24.8,0.2l30.9-24.5C3080.1,2654.6,3081.5,2642.1,3074.7,2633.6z"/>
			</g>
		</g>
		<g>
			<g>
				<g>
					<path class="st19" d="M2597.9,2379.9h-15.2v7.8c-15.6,16.4-26.6,57.2-26.6,105c0,47.8,11,88.5,26.6,105v7.8h15.2
						c23.1,0,41.8-50.5,41.8-112.8C2639.7,2430.4,2621,2379.9,2597.9,2379.9z"/>
					<path class="st17" d="M2582.6,2379.9c-3.8,0-7.4,1.5-10.8,4c-15.7,8.3-43.1,33.6-43.1,108.9c0,67.7,22.1,94.1,38.1,104.3
						c4.9,5.4,10.3,8.5,15.9,8.5c23.1,0,41.8-50.5,41.8-112.8C2624.4,2430.4,2605.7,2379.9,2582.6,2379.9z"/>
					<path class="st21" d="M2594.7,2384.6c10.6,20.5,17.5,53.9,17.5,91.7c0,62.3-18.7,112.8-41.8,112.8c-5.6,0-11-3-15.9-8.5
						c-2.9-1.9-6-4.3-9.2-7.4c6.8,12.1,14.7,19.4,21.4,23.7c4.9,5.4,10.3,8.5,15.9,8.5c23.1,0,41.8-50.5,41.8-112.8
						C2624.4,2441.6,2611.9,2398.6,2594.7,2384.6z"/>
				</g>
				<path class="st22" d="M2568,2410.2c0,0-0.5,2-1.3,5.6c-0.7,3.6-1.8,8.5-2.8,14.3c-0.5,2.9-1.1,6-1.6,9.3
					c-0.6,3.3-1.1,6.7-1.6,10.2c-0.6,3.5-0.9,7.2-1.5,10.9c-0.4,3.7-0.8,7.5-1.3,11.3c-0.3,3.8-0.7,7.6-1,11.4
					c-0.2,3.8-0.6,7.5-0.9,11.2c-0.2,3.6-0.4,7.2-0.7,10.6c-0.2,3.4-0.4,6.7-0.6,9.7c-0.6,6.1-0.8,11.2-1.2,14.9
					c-0.4,3.7-0.8,5.9-0.8,5.9s-0.9-1.8-2.2-5.2c-1.3-3.4-3.2-8.2-4.6-14.3c-0.7-3.1-1.5-6.4-2.1-10c-0.5-3.6-1-7.5-1.3-11.5
					c-0.3-4-0.4-8.2-0.4-12.5c0-4.3,0.4-8.6,0.7-12.9c0.6-4.3,1.1-8.6,1.9-12.7c0.9-4.1,1.7-8.2,3-11.9c1.1-3.8,2.4-7.4,3.8-10.6
					c1.3-3.3,2.9-6.2,4.3-8.9c3-5.2,6-9,8.2-11.4C2566.5,2411.2,2568,2410.2,2568,2410.2z"/>
			</g>
			<g>
				<g>
					<path class="st19" d="M3147.2,2379.9h15.2v7.8c15.6,16.4,26.6,57.2,26.6,105c0,47.8-11,88.5-26.6,105v7.8h-15.2
						c-23.1,0-41.8-50.5-41.8-112.8C3105.4,2430.4,3124.1,2379.9,3147.2,2379.9z"/>
					<path class="st17" d="M3162.5,2379.9c3.7,0,7.4,1.5,10.8,4c15.7,8.3,43.1,33.6,43.1,108.9c0,67.7-22.1,94.1-38.1,104.3
						c-4.9,5.4-10.3,8.5-15.9,8.5c-23.1,0-41.8-50.5-41.8-112.8C3120.7,2430.4,3139.4,2379.9,3162.5,2379.9z"/>
					<path class="st21" d="M3150.4,2384.6c-10.6,20.5-17.5,53.9-17.5,91.7c0,62.3,18.7,112.8,41.8,112.8c5.6,0,11-3,15.9-8.5
						c2.9-1.9,6-4.3,9.2-7.4c-6.8,12.1-14.7,19.4-21.4,23.7c-4.9,5.4-10.3,8.5-15.9,8.5c-23.1,0-41.8-50.5-41.8-112.8
						C3120.7,2441.6,3133.2,2398.6,3150.4,2384.6z"/>
				</g>
				<path class="st22" d="M3177.1,2410.2c0,0,0.5,2,1.3,5.6c0.7,3.6,1.8,8.5,2.8,14.3c0.5,2.9,1.1,6,1.6,9.3
					c0.6,3.3,1.1,6.7,1.6,10.2c0.6,3.5,0.9,7.2,1.5,10.9c0.4,3.7,0.8,7.5,1.2,11.3c0.4,3.8,0.7,7.6,1,11.4c0.2,3.8,0.6,7.5,0.9,11.2
					c0.2,3.6,0.4,7.2,0.7,10.6c0.2,3.4,0.4,6.7,0.6,9.7c0.6,6.1,0.8,11.2,1.2,14.9c0.4,3.7,0.7,5.9,0.7,5.9s0.9-1.8,2.2-5.2
					c1.3-3.4,3.2-8.2,4.6-14.3c0.7-3.1,1.5-6.4,2.1-10c0.5-3.6,0.9-7.5,1.3-11.5c0.3-4,0.4-8.2,0.4-12.5c0-4.3-0.4-8.6-0.7-12.9
					c-0.6-4.3-1.1-8.6-1.9-12.7c-0.9-4.1-1.7-8.2-3-11.9c-1.1-3.8-2.4-7.4-3.8-10.6c-1.3-3.3-2.9-6.2-4.3-8.9c-3-5.2-6-9-8.2-11.4
					C3178.6,2411.2,3177.1,2410.2,3177.1,2410.2z"/>
			</g>
		</g>
	</g>
</g>
<g>
	<rect x="1673" y="3811.1" class="st17" width="2406.6" height="118.2"/>
	<path class="st23" d="M4189.2,3843.2c0,17.7-15.2,32.1-33.7,32.1H1597.1c-18.5,0-33.7-14.5-33.7-32.1s15.2-32.1,33.7-32.1h2558.4
		C4174.1,3811.1,4189.2,3825.5,4189.2,3843.2z"/>
</g>
<path class="st24" d="M3471.8,3782.6c0,15.7-12.8,28.4-28.5,28.4H2309.3c-15.7,0-28.4-12.7-28.4-28.4l0,0
	c0-15.7,12.7-28.5,28.4-28.5h1134.1C3459.1,3754.2,3471.8,3766.9,3471.8,3782.6L3471.8,3782.6z"/>
<g>
	<g>
		<path class="st25" d="M3381.9,3709.6c0,29.7-24.3,53.9-53.9,53.9h-903.4c-29.7,0-53.9-24.3-53.9-53.9v-494.9
			c0-29.7,24.3-53.9,53.9-53.9H3328c29.7,0,53.9,24.3,53.9,53.9V3709.6z"/>
		<path class="st17" d="M2916.2,3457.9c0,22-17.9,39.9-39.9,39.9c-22,0-39.9-17.9-39.9-39.9c0-22,17.9-39.9,39.9-39.9
			C2898.4,3418.1,2916.2,3435.9,2916.2,3457.9z"/>
	</g>
	<path class="st26" d="M3328,3160.7h-194.6c-11.4,366.2-509.8,538.7-731.9,597.4c7,3.4,14.8,5.3,23.1,5.3H3328
		c29.7,0,53.9-24.3,53.9-53.9v-494.9C3381.9,3185,3357.7,3160.7,3328,3160.7z"/>
</g>
<g>
	<g>
		<path class="st17" d="M2131.1,2035.7h-301.9c-36.6,0-66.2,29.7-66.2,66.3v213.8c0,36.6,29.7,66.2,66.2,66.2h147.4l84.4,61.8v-61.8
			h70.1c36.6,0,66.3-29.7,66.3-66.2v-213.8C2197.4,2065.3,2167.7,2035.7,2131.1,2035.7z"/>
		<g>
			<path class="st27" d="M1991,2120.1c0,5.6-4.5,10.1-10.1,10.1h-154.6c-5.6,0-10.1-4.5-10.1-10.1l0,0c0-5.6,4.5-10.1,10.1-10.1
				h154.6C1986.5,2110,1991,2114.5,1991,2120.1L1991,2120.1z"/>
			<path class="st27" d="M2156.7,2175.3c0,5.6-4.5,10.1-10.1,10.1h-320.2c-5.6,0-10.1-4.5-10.1-10.1l0,0c0-5.6,4.5-10.1,10.1-10.1
				h320.2C2152.1,2165.2,2156.7,2169.7,2156.7,2175.3L2156.7,2175.3z"/>
			<path class="st27" d="M2156.7,2230.5c0,5.6-4.5,10.1-10.1,10.1h-320.2c-5.6,0-10.1-4.5-10.1-10.1l0,0c0-5.6,4.5-10.1,10.1-10.1
				h320.2C2152.1,2220.4,2156.7,2224.9,2156.7,2230.5L2156.7,2230.5z"/>
			<path class="st27" d="M2101.4,2285.7c0,5.6-4.5,10.1-10.1,10.1h-265c-5.6,0-10.1-4.5-10.1-10.1l0,0c0-5.6,4.5-10.1,10.1-10.1h265
				C2096.9,2275.6,2101.4,2280.1,2101.4,2285.7L2101.4,2285.7z"/>
		</g>
		<path class="st28" d="M2131.1,2035.7h-5.4c2.8,178.7-136.9,288.6-243.7,346.3h94.6l84.4,55.1v-55.1h70.1
			c36.6,0,66.3-29.7,66.3-66.2v-213.8C2197.4,2065.3,2167.7,2035.7,2131.1,2035.7z"/>
	</g>
	<g>
		<g>
			<rect x="1770.5" y="2886.1" class="st7" width="296.8" height="184.8"/>
			<polygon class="st15" points="1770.5,2886.1 2067.3,2886.1 1918.9,3015.3 			"/>
			<g>
				<defs>
					<rect id="SVGID_3_" x="1770.5" y="2886.1" width="296.8" height="184.8"/>
				</defs>
				<clipPath id="SVGID_4_">
					<use xlink:href="#SVGID_3_"  style="overflow:visible;"/>
				</clipPath>
				<g class="st38">
					<g>
						<path class="st15" d="M1775.4,3076.9c33.5-44.6,67-89.2,100.5-133.7c6-8-3.8-20-9.8-11.9c-33.5,44.6-67,89.1-100.5,133.7
							C1759.5,3073,1769.4,3085,1775.4,3076.9L1775.4,3076.9z"/>
					</g>
					<g>
						<path class="st15" d="M2070,3064.9c-33.5-44.6-67-89.1-100.5-133.7c-6.1-8.1-15.9,3.9-9.8,11.9c33.5,44.6,67,89.2,100.5,133.7
							C2066.2,3085,2076,3073,2070,3064.9L2070,3064.9z"/>
					</g>
				</g>
			</g>
		</g>
		<path class="st28" d="M1874,3070.9h193.3v-184.8h-87.7C1996.7,2978.1,1936.7,3036.2,1874,3070.9z"/>
	</g>
	<g>
		<g>
			<path class="st7" d="M2272.5,1785.5c-3.3-1.6-9.7-0.2-15.7,1.8c-1.8-6.1-4.2-12-7.2-17.4c5.6-2.8,11.2-6.3,12.4-9.8
				c3-8.3-12.7-23.9-12.7-23.9s-15.5-15.5-23.9-12.7c-3.5,1.2-7,6.7-9.8,12.3c-5.5-3-11.3-5.4-17.5-7.2c2-5.9,3.4-12.4,1.8-15.7
				c-3.8-7.9-25.9-7.9-25.9-7.9s-21.9,0-25.9,7.9c-1.6,3.3-0.2,9.7,1.8,15.7c-6.1,1.8-12,4.2-17.5,7.2c-2.8-5.6-6.3-11.2-9.8-12.4
				c-8.3-3-23.9,12.7-23.9,12.7s-15.5,15.5-12.7,23.9c1.2,3.5,6.7,7,12.3,9.8c-3,5.5-5.4,11.3-7.2,17.5c-5.9-2-12.4-3.4-15.7-1.8
				c-7.9,3.8-7.9,25.9-7.9,25.9s0,21.9,7.9,25.9c3.3,1.6,9.7,0.2,15.7-1.8c1.8,6.1,4.2,12,7.2,17.5c-5.6,2.8-11.2,6.3-12.4,9.8
				c-3,8.3,12.7,23.9,12.7,23.9s15.5,15.5,23.9,12.7c3.5-1.2,7-6.7,9.8-12.3c5.5,3,11.3,5.4,17.4,7.2c-2,5.9-3.4,12.4-1.8,15.7
				c3.8,7.9,25.9,7.9,25.9,7.9s21.9,0,25.9-7.9c1.6-3.3,0.2-9.7-1.8-15.7c6.1-1.8,12-4.2,17.5-7.2c2.8,5.6,6.3,11.2,9.8,12.4
				c8.3,2.9,23.9-12.7,23.9-12.7s15.5-15.5,12.7-23.9c-1.2-3.5-6.7-7-12.3-9.8c3-5.5,5.4-11.3,7.2-17.5c5.9,2,12.4,3.4,15.7,1.8
				c7.9-3.8,7.9-25.9,7.9-25.9S2280.4,1789.4,2272.5,1785.5z M2174.1,1851.2c-22,0-39.9-17.9-39.9-39.9c0-22,17.9-39.9,39.9-39.9
				c22,0,39.9,17.9,39.9,39.9C2214,1833.4,2196.1,1851.2,2174.1,1851.2z"/>
			<g class="st30">
				<path class="st15" d="M2174.1,1872.5c-33.7,0-61.2-27.4-61.2-61.2c0-33.7,27.4-61.2,61.2-61.2c33.7,0,61.2,27.4,61.2,61.2
					C2235.2,1845.1,2207.8,1872.5,2174.1,1872.5z M2174.1,1762.3c-27,0-49,22-49,49c0,27,22,49,49,49c27,0,49-22,49-49
					C2223.1,1784.3,2201.1,1762.3,2174.1,1762.3z"/>
			</g>
		</g>
		<path class="st28" d="M2122.8,1899.2c3.5-1.2,7-6.7,9.8-12.3c5.5,3,11.3,5.4,17.4,7.2c-2,5.9-3.4,12.4-1.8,15.7
			c3.8,7.9,25.9,7.9,25.9,7.9s21.9,0,25.9-7.9c1.6-3.3,0.2-9.7-1.8-15.7c6.1-1.8,12-4.2,17.5-7.2c2.8,5.6,6.3,11.2,9.8,12.4
			c8.3,2.9,23.9-12.7,23.9-12.7s15.5-15.5,12.7-23.9c-1.2-3.5-6.7-7-12.3-9.8c3-5.5,5.4-11.3,7.2-17.5c5.9,2,12.4,3.4,15.7,1.8
			c7.9-3.8,7.9-25.9,7.9-25.9s0-21.9-7.9-25.9c-3.3-1.6-9.7-0.2-15.7,1.8c-1.8-6.1-4.2-12-7.2-17.4c5.6-2.8,11.2-6.3,12.4-9.8
			c3-8.3-12.7-23.9-12.7-23.9s-0.7-0.7-1.9-1.8c-9.9,21.9-22.9,41.6-37.7,59c2.7,5.4,4.3,11.5,4.3,17.9c0,22-17.8,39.9-39.9,39.9
			c-7.6,0-14.7-2.2-20.8-5.9c-19.5,14.3-39.7,26.2-59,36.1c2.5,3,4.5,5.1,4.5,5.1S2114.4,1902,2122.8,1899.2z"/>
	</g>
	<g>
		<g>
			<path class="st31" d="M2118.4,2539.3H2354c15.6,0,28.3,12.7,28.3,28.3v91.3c0,15.6-12.7,28.3-28.3,28.3h-116.3l-36,43.7v-43.7
				h-83.3c-15.6,0-28.3-12.7-28.3-28.3v-91.3C2090.1,2552,2102.7,2539.3,2118.4,2539.3z"/>
			<g>
				<path class="st12" d="M2231.9,2583.1c-8.7-5-21.4,0.2-31.7,11.8c-10.3-11.5-23.1-16.8-31.7-11.8c-10.9,6.4-11.1,26.5-0.3,45
					c8.6,14.9,21.6,24,32.1,23.8c10.5,0.2,23.4-8.9,32.1-23.8C2243,2609.6,2242.8,2589.5,2231.9,2583.1z"/>
				<text transform="matrix(1 0 0 1 2260.2502 2651.8684)" class="st12 st32 st39">1</text>
			</g>
			<path class="st28" d="M2382.3,2567.6c0-15.6-12.7-28.3-28.3-28.3h-48.4c3.6,82.8-73.6,126-141.5,147.9h37.6v43.7l36-43.7H2354
				c15.6,0,28.3-12.7,28.3-28.3V2567.6z"/>
		</g>
	</g>
	<g>
		<g>
			<path class="st31" d="M2372.7,1851.1h235.6c15.6,0,28.3,12.7,28.3,28.3v91.3c0,15.6-12.7,28.3-28.3,28.3H2492l-36,43.7V1999
				h-83.3c-15.6,0-28.3-12.7-28.3-28.3v-91.3C2344.4,1863.8,2357.1,1851.1,2372.7,1851.1z"/>
			<g>
				<text transform="matrix(1 0 0 1 2514.5813 1961.0139)" class="st12 st32 st39">1</text>
				<path class="st12" d="M2480.1,1900.8h-48c-5.8,0-10.5,4.7-10.5,10.5v34c0,5.8,4.7,10.5,10.5,10.5h23.4l13.4,16.3v-16.3h11.1
					c5.8,0,10.5-4.7,10.5-10.5v-34C2490.7,1905.6,2486,1900.8,2480.1,1900.8z"/>
			</g>
			<path class="st28" d="M2636.6,1879.4c0-15.6-12.7-28.3-28.3-28.3h-48.4c3.6,82.8-73.6,126-141.5,147.9h37.6v43.7l36-43.7h116.3
				c15.6,0,28.3-12.7,28.3-28.3V1879.4z"/>
		</g>
	</g>
	<g>
		<text transform="matrix(1 0 0 1 2814.699 1772.2004)" class="st34 st32 st40">24/7</text>
		<path class="st34" d="M3043.4,1742.1c-1.5,67.7-43.4,125.2-107.6,146.8c-64.2,21.7-134.9-5.8-173.4-59.7
			c-39.4-55.2-33.8-131.2,6.9-183.6c44.5-57.1,124.3-71.5,188.4-41.5c-16.9,6-33.8,12.1-50.8,18.1c-7.8,2.8-4.4,15.3,3.5,12.5
			c20.7-7.4,41.5-14.8,62.2-22.2c3.4-1.2,5.4-4.3,4.5-8c-5.3-21.5-10.7-43-16-64.6c-2-8.1-14.5-4.7-12.5,3.5
			c4,15.9,7.9,31.9,11.9,47.8c-70.3-31.1-150.2-13.9-200.3,45.2c-47.7,56.2-48.5,138.8-9,199.3c40.3,61.7,118.8,85.8,188,65.7
			c70.2-20.4,115.5-88.1,117.1-159.3C3056.5,1733.7,3043.6,1733.7,3043.4,1742.1z"/>
	</g>
</g>
<g>
	<path class="st36" d="M2054.7,3526.5c0,13.8-57,25-127.4,25c-70.3,0-127.4-11.2-127.4-25c0-13.8,57-25,127.4-25
		C1997.7,3501.5,2054.7,3512.7,2054.7,3526.5z"/>
	<path class="st37" d="M1817.2,3539c22,7.5,63.1,12.5,110.2,12.5c47.1,0,88.1-5,110.2-12.5c-22-7.5-63.1-12.5-110.2-12.5
		C1880.3,3526.5,1839.2,3531.5,1817.2,3539z"/>
</g>
<g>
	<polygon class="st0" points="3264.2,1665.6 3243.3,1594.9 3222.4,1665.6 3157.8,1687.8 3222.4,1710 3243.3,1780.6 3264.2,1710 
		3328.7,1687.8 	"/>
	<polygon class="st12" points="3367.1,2444.8 3352.9,2396.9 3338.8,2444.8 3295,2459.9 3338.8,2475 3352.9,2522.9 3367.1,2475 
		3410.9,2459.9 	"/>
	<polygon class="st12" points="3585.3,2376.8 3578,2351.8 3570.6,2376.8 3547.7,2384.6 3570.6,2392.5 3578,2417.5 3585.3,2392.5 
		3608.2,2384.6 	"/>
	<polygon class="st0" points="4037,2716.9 4022.5,2667.9 4008.1,2716.9 3963.3,2732.3 4008.1,2747.7 4022.5,2796.7 4037,2747.7 
		4081.8,2732.3 	"/>
	<polygon class="st12" points="3733.2,2919 3716.8,2863.6 3700.4,2919 3649.7,2936.4 3700.4,2953.8 3716.8,3009.3 3733.2,2953.8 
		3783.8,2936.4 	"/>
	<polygon class="st12" points="3360.3,2873.8 3352.9,2848.8 3345.5,2873.8 3322.7,2881.7 3345.5,2889.6 3352.9,2914.6 
		3360.3,2889.6 3383.2,2881.7 	"/>
	<polygon class="st0" points="3873.1,2026.8 3864.8,1998.8 3856.5,2026.8 3830.9,2035.7 3856.5,2044.5 3864.8,2072.5 3873.1,2044.5 
		3898.7,2035.7 	"/>
	<polygon class="st0" points="2281.5,1526.5 2273.2,1498.5 2264.9,1526.5 2239.3,1535.3 2264.9,1544.1 2273.2,1572.2 2281.5,1544.1 
		2307.1,1535.3 	"/>
	<polygon class="st0" points="3619.1,1570.3 3604.6,1521.3 3590.2,1570.3 3545.4,1585.7 3590.2,1601.1 3604.6,1650.1 3619.1,1601.1 
		3663.9,1585.7 	"/>
	<polygon class="st0" points="2556.7,1670.4 2542.2,1621.4 2527.8,1670.4 2483,1685.8 2527.8,1701.2 2542.2,1750.2 2556.7,1701.2 
		2601.5,1685.8 	"/>
	<polygon class="st0" points="1890.3,1741.4 1882,1713.3 1873.7,1741.4 1848.1,1750.2 1873.7,1759 1882,1787.1 1890.3,1759 
		1915.9,1750.2 	"/>
	<polygon class="st0" points="1621.6,2300.3 1600.7,2229.6 1579.8,2300.3 1515.2,2322.5 1579.8,2344.7 1600.7,2415.3 1621.6,2344.7 
		1686.1,2322.5 	"/>
	<polygon class="st12" points="2424.3,2196.1 2401.5,2119 2378.7,2196.1 2308.3,2220.4 2378.7,2244.6 2401.5,2321.7 2424.3,2244.6 
		2494.8,2220.4 	"/>
	<polygon class="st12" points="1814.2,2649.8 1800,2601.9 1785.9,2649.8 1742.1,2664.9 1785.9,2679.9 1800,2727.8 1814.2,2679.9 
		1858,2664.9 	"/>
	<polygon class="st12" points="2351.8,2873.8 2344.4,2848.8 2337,2873.8 2314.2,2881.7 2337,2889.6 2344.4,2914.6 2351.8,2889.6 
		2374.6,2881.7 	"/>
	<polygon class="st12" points="2170.8,3208.7 2156.7,3160.7 2142.5,3208.7 2098.7,3223.7 2142.5,3238.8 2156.7,3286.7 
		2170.8,3238.8 2214.6,3223.7 	"/>
	<polygon class="st0" points="1510.1,3118.6 1495.6,3069.6 1481.1,3118.6 1436.3,3134 1481.1,3149.4 1495.6,3198.4 1510.1,3149.4 
		1554.8,3134 	"/>
	<polygon class="st0" points="1563.4,3334.6 1555.1,3306.6 1546.8,3334.6 1521.2,3343.5 1546.8,3352.3 1555.1,3380.3 1563.4,3352.3 
		1589.1,3343.5 	"/>
	<polygon class="st0" points="4248.9,3271.3 4234.4,3222.3 4220,3271.3 4175.2,3286.7 4220,3302.1 4234.4,3351.1 4248.9,3302.1 
		4293.7,3286.7 	"/>
</g>
</svg>
