<?xml version="1.0" encoding="UTF-8"?>
<!DOCTYPE svg PUBLIC "-//W3C//DTD SVG 1.1//EN" "http://www.w3.org/Graphics/SVG/1.1/DTD/svg11.dtd">
<!-- Creator: CorelDRAW 2017 -->
<svg xmlns="http://www.w3.org/2000/svg" xml:space="preserve" width="18in" height="24in" version="1.1" style="shape-rendering:geometricPrecision; text-rendering:geometricPrecision; image-rendering:optimizeQuality; fill-rule:evenodd; clip-rule:evenodd"
viewBox="0 0 18000 24000"
 xmlns:xlink="http://www.w3.org/1999/xlink">
 <defs>
  <style type="text/css">
   <![CDATA[
    .fil0 {fill:#EEEEEE}
   ]]>
  </style>
 </defs>
 <g id="Layer_x0020_1">
  <metadata id="CorelCorpID_0Corel-Layer"/>
  <path class="fil0" d="M-1276 7710l0 -1469 28563 0 0 1531c-177,-689 -1049,-678 -1156,-5 -168,-676 -1005,-684 -1156,0 -174,-678 -946,-685 -1104,-5 -138,-713 -1055,-646 -1151,5 -187,-728 -1058,-638 -1161,5 -153,-690 -1003,-690 -1122,0 -184,-682 -1022,-681 -1161,0 -128,-686 -970,-691 -1120,0 -214,-688 -969,-687 -1167,0 -185,-712 -1032,-671 -1146,0 -171,-697 -1007,-666 -1130,0 -136,-657 -994,-712 -1151,0 -178,-706 -994,-662 -1125,0 -235,-710 -975,-669 -1156,0 -164,-682 -962,-704 -1135,0 -213,-695 -942,-689 -1151,0 -252,-698 -958,-672 -1141,0 -212,-676 -960,-704 -1160,0 -172,-667 -933,-700 -1100,0 -212,-666 -934,-707 -1183,0 -215,-703 -946,-665 -1158,0 -109,-693 -963,-686 -1084,0 -209,-653 -972,-715 -1167,0 -175,-695 -985,-688 -1132,0 -147,-610 -931,-755 -1144,-1l1 -62z"/>
 </g>
</svg>
